<?xml version="1.0" encoding="UTF-8"?>
<svg version="1.1" xmlns="http://www.w3.org/2000/svg" width="500" height="500">
<path d="M0 0 C9.69320986 0.15606241 19.57360018 6.12672959 26.6875 12.375 C26.6875 13.035 26.6875 13.695 26.6875 14.375 C27.72583984 14.34019531 27.72583984 14.34019531 28.78515625 14.3046875 C54.02389007 13.83915091 77.7239887 21.62010287 96.3203125 38.96875 C106.71130671 49.53121276 106.71130671 49.53121276 107.6875 55.375 C108.50734375 54.95347656 109.3271875 54.53195313 110.171875 54.09765625 C111.24953125 53.54980469 112.3271875 53.00195312 113.4375 52.4375 C114.50484375 51.89222656 115.5721875 51.34695312 116.671875 50.78515625 C124.23288012 47.24950489 133.5310323 47.17021783 141.61328125 49.05859375 C148.04262689 51.46834849 154.92793578 55.00250192 158.1875 61.25 C158.3525 61.95125 158.5175 62.6525 158.6875 63.375 C159.3475 63.375 160.0075 63.375 160.6875 63.375 C161.50292431 65.45719049 162.31473189 67.54079761 163.125 69.625 C163.57746094 70.78515625 164.02992188 71.9453125 164.49609375 73.140625 C168.67860243 84.49510757 166.49786505 95.62170402 161.5625 106.5 C154.57586208 119.47220534 144.10688835 126.22524094 130.44921875 130.7109375 C127.74663176 131.36078161 125.45406363 131.50602123 122.6875 131.375 C122.666875 132.57125 122.64625 133.7675 122.625 135 C121.34593501 146.28064264 113.94368085 156.08655911 106.6875 164.375 C105.68482587 165.58111526 104.68438451 166.78909508 103.6875 168 C103.0275 168.78375 102.3675 169.5675 101.6875 170.375 C102.50734375 170.84550781 103.3271875 171.31601562 104.171875 171.80078125 C105.24953125 172.42339844 106.3271875 173.04601562 107.4375 173.6875 C109.03851563 174.60982422 109.03851563 174.60982422 110.671875 175.55078125 C113.15375592 177.05212631 115.49649212 178.47648104 117.6875 180.375 C117.6875 181.035 117.6875 181.695 117.6875 182.375 C118.25726563 182.62894531 118.82703125 182.88289062 119.4140625 183.14453125 C133.79285064 190.92686503 145.69463446 207.8877833 155.40820312 220.70166016 C156.65420139 222.33144491 157.92352849 223.93948061 159.203125 225.54296875 C171.24223995 240.70639697 180.68872293 257.27125449 189.6875 274.375 C190.29207031 275.50808594 190.89664062 276.64117187 191.51953125 277.80859375 C192.89610242 280.8333672 192.92224469 283.0885743 192.6875 286.375 C191.0375 286.705 189.3875 287.035 187.6875 287.375 C187.35540527 286.76092285 187.02331055 286.1468457 186.68115234 285.51416016 C185.14392227 282.67484342 183.60322955 279.83741919 182.0625 277 C181.54042969 276.03449219 181.01835937 275.06898438 180.48046875 274.07421875 C177.40647745 268.41959279 174.22020043 262.88500427 170.77587891 257.44677734 C169.6875 255.375 169.6875 255.375 169.6875 252.375 C169.0275 252.375 168.3675 252.375 167.6875 252.375 C166.6015625 250.75 166.6015625 250.75 165.3125 248.375 C156.53267881 233.24107839 144.73064035 219.38996373 132.671875 206.78833008 C130.17473173 204.14746929 128.05428679 201.77150611 126.6875 198.375 C126.0275 198.375 125.3675 198.375 124.6875 198.375 C124.6875 197.715 124.6875 197.055 124.6875 196.375 C124.0275 196.375 123.3675 196.375 122.6875 196.375 C122.6875 195.715 122.6875 195.055 122.6875 194.375 C122.11386719 194.12234375 121.54023438 193.8696875 120.94921875 193.609375 C118.41168387 192.22446823 116.60498138 190.60345244 114.5 188.625 C110.18307066 184.70699482 105.68472178 181.37524405 100.6875 178.375 C100.04425781 177.97023438 99.40101563 177.56546875 98.73828125 177.1484375 C95.98504673 176.11007477 94.47015233 176.49695743 91.6875 177.375 C89.7445399 178.48813791 89.7445399 178.48813791 87.875 179.9375 C76.53833568 187.7455337 64.00086083 193.03370905 50.6875 196.375 C50.04296875 196.53871094 49.3984375 196.70242188 48.734375 196.87109375 C30.60094221 201.25938448 8.787025 201.98146404 -8.86933899 195.42564392 C-16.10494364 192.78726396 -22.50792394 191.73187319 -30.1796875 191.58203125 C-31.28208267 191.54594254 -32.38447784 191.50985382 -33.52027893 191.47267151 C-37.07574653 191.36045625 -40.63131348 191.27361519 -44.1875 191.1875 C-46.64335692 191.11499801 -49.09916808 191.04093016 -51.55493164 190.96533203 C-57.6617983 190.78160335 -63.76899488 190.61868994 -69.87664795 190.46356201 C-75.04434229 190.33036029 -80.21159085 190.18219391 -85.37890625 190.03515625 C-94.02294533 189.79261364 -102.6673366 189.57351677 -111.3125 189.375 C-114.01315552 183.07347045 -114.46257578 177.51293114 -114.4453125 170.69921875 C-114.44626923 169.85639847 -114.44722595 169.01357819 -114.44821167 168.1452179 C-114.44889117 166.35909958 -114.4470529 164.57297878 -114.44287109 162.78686523 C-114.43759326 160.10980354 -114.4427853 157.43291536 -114.44921875 154.75585938 C-114.46451689 122.19273093 -114.46451689 122.19273093 -107.36328125 108.703125 C-105.14758131 103.79399056 -103.79374486 98.54359909 -102.3125 93.375 C-102.9725 93.375 -103.6325 93.375 -104.3125 93.375 C-105.70188077 91.41352126 -107.0385411 89.41333424 -108.3125 87.375 C-109.364375 87.931875 -110.41625 88.48875 -111.5 89.0625 C-114.53161159 90.37230379 -114.94446527 90.51901359 -118.1875 89.25 C-120.3125 87.375 -120.3125 87.375 -121.3125 84.375 C-121.38052967 82.64704648 -121.39745645 80.91664635 -121.375 79.1875 C-121.36597656 78.28644531 -121.35695312 77.38539063 -121.34765625 76.45703125 C-121.33605469 75.76996094 -121.32445312 75.08289063 -121.3125 74.375 C-124.55377413 75.71238831 -125.85507023 76.71682034 -127.20703125 79.953125 C-127.51914551 80.69014648 -127.83125977 81.42716797 -128.15283203 82.18652344 C-128.47364746 82.9912207 -128.79446289 83.79591797 -129.125 84.625 C-129.46901855 85.46836914 -129.81303711 86.31173828 -130.16748047 87.18066406 C-145.42781541 125.41211411 -163.35910225 182.56871948 -148.2109375 223.33984375 C-147.91445312 224.01144531 -147.61796875 224.68304688 -147.3125 225.375 C-146.18535035 223.37570835 -146.18535035 223.37570835 -145.9375 220.9375 C-145.24754491 218.10868414 -144.73006099 216.98670733 -142.3125 215.375 C-140.33203125 215.51171875 -140.33203125 215.51171875 -138.3125 216.375 C-137.1875 218.44921875 -137.1875 218.44921875 -136.3125 221.0625 C-134.75996964 225.35660182 -133.01367694 228.70911701 -130.3125 232.375 C-129.9825 230.725 -129.6525 229.075 -129.3125 227.375 C-129.9725 227.045 -130.6325 226.715 -131.3125 226.375 C-130.3225 224.065 -129.3325 221.755 -128.3125 219.375 C-126.9925 219.375 -125.6725 219.375 -124.3125 219.375 C-122.6015625 221.23828125 -122.6015625 221.23828125 -120.9375 223.6875 C-118.02358913 227.69019398 -115.93866107 229.68250205 -111.3125 231.375 C-111.6425 230.055 -111.9725 228.735 -112.3125 227.375 C-110.375 226.1875 -110.375 226.1875 -107.3125 225.375 C-105.250895 226.07079169 -103.19089711 226.77167987 -101.13891602 227.49536133 C-95.30523716 229.31092191 -89.25633277 230.24164871 -83.25 231.3125 C-82.54205292 231.4412854 -81.83410583 231.5700708 -81.10470581 231.70275879 C-68.52344675 233.98421671 -55.90339145 235.7009097 -43.19311523 237.08178711 C-41.92411377 237.22495361 -40.6551123 237.36812012 -39.34765625 237.515625 C-38.2275415 237.63454102 -37.10742676 237.75345703 -35.95336914 237.87597656 C-33.3125 238.375 -33.3125 238.375 -31.3125 240.375 C-31.16704619 246.39027022 -32.91760989 252.54410163 -34.25 258.375 C-35.85305697 265.59738268 -36.98281263 272.7483731 -37.62866211 280.11914062 C-38.1106061 285.1731061 -38.1106061 285.1731061 -40.3125 287.375 C-42.9375 287 -42.9375 287 -45.3125 286.375 C-45.94547553 278.19906603 -44.84395722 270.53898005 -43.4375 262.5 C-43.26379883 261.50154053 -43.09009766 260.50308105 -42.91113281 259.47436523 C-42.02594298 254.60868454 -40.94469812 250.05465123 -39.3125 245.375 C-40.1070459 245.33616699 -40.9015918 245.29733398 -41.72021484 245.25732422 C-51.10272447 244.70273919 -60.25296598 243.43934552 -69.51757812 241.90087891 C-71.94009444 241.49957021 -74.36435369 241.11047273 -76.7890625 240.72265625 C-85.41131972 239.32286638 -93.88157404 237.70270939 -102.3125 235.375 C-102.6425 237.025 -102.9725 238.675 -103.3125 240.375 C-111.39091903 241.15678249 -115.74201574 238.98394094 -122.3125 234.375 C-122.786875 235.344375 -123.26125 236.31375 -123.75 237.3125 C-125.3125 240.375 -125.3125 240.375 -126.3125 241.375 C-129.85381565 241.375 -132.36829194 241.19399786 -135.109375 238.81640625 C-139.3125 234.00282738 -139.3125 234.00282738 -139.3125 231.375 C-139.9725 231.375 -140.6325 231.375 -141.3125 231.375 C-141.539375 232.014375 -141.76625 232.65375 -142 233.3125 C-143.3125 235.375 -143.3125 235.375 -145.625 236.4375 C-148.3125 236.375 -148.3125 236.375 -150.875 234.5 C-162.18989757 219.99372106 -161.82383936 199.01554837 -160.625 181.5625 C-160.5802655 180.89024384 -160.53553101 180.21798767 -160.48944092 179.52536011 C-159.31213519 162.18608942 -156.48759971 145.20247582 -151.87646484 128.44189453 C-151.26880693 126.21486772 -150.69181372 123.98085321 -150.11328125 121.74609375 C-144.88756204 102.08982495 -138.32787909 79.7892459 -127.4375 62.5 C-125.29726087 59.03816321 -123.32496397 55.54317166 -121.4375 51.9375 C-116.7461467 43.29425736 -110.71024548 35.72219968 -104.4375 28.1875 C-103.96094971 27.61016113 -103.48439941 27.03282227 -102.9934082 26.43798828 C-101.81210093 25.04365144 -100.56722479 23.70365639 -99.3125 22.375 C-98.6525 22.375 -97.9925 22.375 -97.3125 22.375 C-97.3125 21.715 -97.3125 21.055 -97.3125 20.375 C-96.6525 20.375 -95.9925 20.375 -95.3125 20.375 C-95.0340625 19.50875 -95.0340625 19.50875 -94.75 18.625 C-92.28989564 14.77440187 -88.31041914 12.88875064 -83.98828125 11.77734375 C-72.39688881 10.03440445 -59.41456067 10.82570642 -49.3125 17.1875 C-44.3048256 20.89042254 -41.11749709 24.76500581 -38.3125 30.375 C-33.6925 28.725 -29.0725 27.075 -24.3125 25.375 C-26.2925 23.89 -26.2925 23.89 -28.3125 22.375 C-28.875 19.375 -28.875 19.375 -28.3125 16.375 C-23.3825183 12.40362585 -18.51799663 12.23688795 -12.375 12.25 C-10.56708984 12.24613281 -10.56708984 12.24613281 -8.72265625 12.2421875 C-5.78027408 12.35678199 -3.16760777 12.69237461 -0.3125 13.375 C-1.3025 12.075625 -1.3025 12.075625 -2.3125 10.75 C-4.44270925 7.15527189 -4.78732219 5.4584708 -4.3125 1.375 C-3.3125 0.375 -3.3125 0.375 0 0 Z M6.6875 9.375 C6.996875 10.24125 7.30625 11.1075 7.625 12 C8.61241899 15.13650738 9.22331059 18.12567413 9.6875 21.375 C6.30892646 22.53183584 4.55067451 22.18986385 1.25 20.9375 C-4.92877909 18.9056145 -10.87305988 19.10248451 -17.3125 19.375 C-16.69890625 19.83519531 -16.0853125 20.29539063 -15.453125 20.76953125 C-13.40625 22.3046875 -11.359375 23.83984375 -9.3125 25.375 C-9.8075 27.85 -9.8075 27.85 -10.3125 30.375 C-11.08851563 30.46136719 -11.86453125 30.54773438 -12.6640625 30.63671875 C-21.47007856 31.78213134 -29.088842 34.14471755 -37.3125 37.375 C-35.9925 38.365 -34.6725 39.355 -33.3125 40.375 C-34.41569039 43.68457118 -35.93616905 44.84028937 -38.8125 46.5625 C-41.1630947 48.11825443 -42.14737825 48.89487676 -43.07421875 51.58984375 C-43.35411226 53.17419506 -43.61764647 54.76153954 -43.86328125 56.3515625 C-44.3125 58.375 -44.3125 58.375 -46.1875 60.375 C-48.3125 61.375 -48.3125 61.375 -50.3515625 61.671875 C-52.49135337 62.17985512 -52.49135337 62.17985512 -53.21875 64.265625 C-53.4146875 65.04421875 -53.610625 65.8228125 -53.8125 66.625 C-54.98981559 70.69735394 -56.57568728 73.1084816 -59.3125 76.375 C-61.26363835 81.19503436 -61.86358718 85.87697768 -62.375 91 C-63.24917902 99.40945768 -63.24917902 99.40945768 -64.3125 103.375 C-65.47265625 103.14103516 -65.47265625 103.14103516 -66.65625 102.90234375 C-76.88696906 100.99041482 -84.98372727 101.26638636 -94.3125 106.375 C-100.61869511 111.06672248 -104.57768206 116.68758801 -106.3125 124.375 C-107.45848376 134.08004994 -106.25623228 142.18267294 -100.2890625 150.0390625 C-91.47371199 160.23839295 -82.83178763 165.4368488 -69.2421875 166.45703125 C-64.0678044 166.31214852 -59.23410325 164.89528582 -54.3125 163.375 C-54.60125 162.73433594 -54.89 162.09367188 -55.1875 161.43359375 C-57.46134287 156.13585568 -58.81391512 152.14127391 -58.3125 146.375 C-59.9625 146.375 -61.6125 146.375 -63.3125 146.375 C-63.065 145.1684375 -63.065 145.1684375 -62.8125 143.9375 C-61.80038477 136.72617897 -61.55420265 130.88938207 -65.3125 124.375 C-68.11291442 121.16476883 -69.57749894 119.63812812 -73.78515625 119 C-78.22739501 118.8953228 -81.40836019 119.13506725 -85.3125 121.375 C-85.3125 122.035 -85.3125 122.695 -85.3125 123.375 C-85.9725 123.375 -86.6325 123.375 -87.3125 123.375 C-88.3025 125.355 -89.2925 127.335 -90.3125 129.375 C-91.3025 129.375 -92.2925 129.375 -93.3125 129.375 C-94.45389626 125.95081122 -94.26224904 125.52723235 -92.75 122.4375 C-90.12449625 117.47821514 -86.60861473 115.14037158 -81.3125 113.375 C-74.46960419 112.633585 -68.9637331 113.28446379 -63.3125 117.375 C-59.10875416 121.27924232 -56.52873712 125.58590766 -56.08203125 131.34765625 C-56.09621094 132.36730469 -56.11039063 133.38695312 -56.125 134.4375 C-56.13144531 135.45972656 -56.13789063 136.48195313 -56.14453125 137.53515625 C-56.28888419 139.97572799 -56.61357793 142.04339596 -57.3125 144.375 C-56.3225 144.705 -55.3325 145.035 -54.3125 145.375 C-53.35546875 147.5625 -53.35546875 147.5625 -52.5 150.375 C-50.58993254 156.06060936 -47.86737253 160.57592208 -44.3125 165.375 C-43.22589791 162.11519374 -43.44768528 161.51287503 -44.3125 158.375 C-45.09039609 149.98269795 -43.44142572 142.13791189 -40.01171875 134.46484375 C-39.04328193 130.18532687 -40.35190651 128.44773551 -42.5 124.6875 C-49.64898849 111.48642091 -52.34988092 97.09254621 -48.3125 82.375 C-44.24117701 71.89319391 -38.3226778 65.43526311 -28.3125 60.375 C-18.19095091 56.64600823 -6.7737813 56.49193761 3.75 58.375 C13.73806422 60.09488351 18.33897885 60.17647001 26.9296875 54.25390625 C39.03266437 46.00811039 52.13495 42.47894736 66.6875 44.375 C73.26782145 46.18136275 78.54576855 48.88047951 83.6875 53.375 C84.0175 54.035 84.3475 54.695 84.6875 55.375 C85.3475 55.375 86.0075 55.375 86.6875 55.375 C87.10708984 56.22578125 87.10708984 56.22578125 87.53515625 57.09375 C88.28884078 58.58578988 89.06674485 60.06590151 89.87109375 61.53125 C94.33592129 69.87672204 96.73357032 77.60594364 96.7734375 87.125 C96.12653622 100.11773964 96.12653622 100.11773964 101.875 111.0625 C102.68324219 111.75214844 103.49148438 112.44179688 104.32421875 113.15234375 C110.00002297 118.49041416 112.68901022 126.79555486 113.6875 134.375 C114.3475 134.375 115.0075 134.375 115.6875 134.375 C116.88959556 130.60652584 116.820406 126.99573676 116.8125 123.0625 C116.81507813 121.78761719 116.81765625 120.51273437 116.8203125 119.19921875 C116.69138874 115.48697286 116.28382587 112.0334119 115.6875 108.375 C117.6675 108.375 119.6475 108.375 121.6875 108.375 C121.80867187 109.44621094 121.92984375 110.51742187 122.0546875 111.62109375 C122.22347601 113.01828752 122.39277313 114.41541991 122.5625 115.8125 C122.64113281 116.51955078 122.71976563 117.22660156 122.80078125 117.95507812 C123.02677676 119.77173432 123.35050727 121.57562522 123.6875 123.375 C126.92138739 124.99194369 129.50772344 123.573633 132.83203125 122.50390625 C143.70301337 118.20607611 150.38074048 111.12225657 156.5625 101.4375 C160.60904459 90.42190639 160.46087956 80.30486346 155.7890625 69.56640625 C152.62180726 63.26558998 147.9976414 59.04297555 141.375 56.6875 C132.04436823 53.90062813 125.15257978 53.98852964 116.30859375 58.62109375 C112.34098255 60.85689782 112.34098255 60.85689782 109.6875 64.375 C107.125 65 107.125 65 104.6875 65.375 C104.48125 64.570625 104.275 63.76625 104.0625 62.9375 C97.72689507 46.52252358 83.54374987 36.08637042 68.3125 28.5625 C57.50000028 24.02062149 47.34331481 22.23377411 35.6875 22.0625 C24.94385364 21.85678884 24.94385364 21.85678884 20.875 18.125 C19.80692101 16.87976367 18.74423728 15.62987552 17.6875 14.375 C15.59137774 12.778186 15.59137774 12.778186 13.375 11.4375 C12.73949219 11.03660156 12.10398437 10.63570312 11.44921875 10.22265625 C9.56278102 9.15821235 9.56278102 9.15821235 6.6875 9.375 Z M-97.5390625 30.890625 C-99.85580919 33.6770901 -102.09857088 36.50624678 -104.3125 39.375 C-104.9828125 40.24125 -105.653125 41.1075 -106.34375 42 C-110.31834018 47.29945357 -113.9196019 52.7908081 -117.375 58.4375 C-117.78169922 59.09331055 -118.18839844 59.74912109 -118.60742188 60.42480469 C-119.57423803 62.03757594 -120.45218546 63.7029882 -121.3125 65.375 C-120.9825 66.035 -120.6525 66.695 -120.3125 67.375 C-117.3425 66.88 -117.3425 66.88 -114.3125 66.375 C-113.37826355 69.38531744 -113.26800089 70.24150268 -114.3125 73.375 C-114.37915376 74.76939664 -114.39788199 76.16669875 -114.375 77.5625 C-114.354375 78.820625 -114.33375 80.07875 -114.3125 81.375 C-112.93687146 80.08534824 -111.60483607 78.74810707 -110.3125 77.375 C-110.3125 76.715 -110.3125 76.055 -110.3125 75.375 C-107.3425 74.88 -107.3425 74.88 -104.3125 74.375 C-103.3225 78.005 -102.3325 81.635 -101.3125 85.375 C-100.3225 85.375 -99.3325 85.375 -98.3125 85.375 C-97.9825 84.715 -97.6525 84.055 -97.3125 83.375 C-96.405 83.00375 -95.4975 82.6325 -94.5625 82.25 C-90.26404596 79.77012267 -88.13874823 76.97619685 -86.3125 72.375 C-85.9387082 69.31842401 -85.99389861 66.43357339 -86.3125 63.375 C-87.9625 63.045 -89.6125 62.715 -91.3125 62.375 C-90.6525 61.055 -89.9925 59.735 -89.3125 58.375 C-82.41693207 57.75932429 -78.7553587 59.15934117 -73.3125 63.375 C-72.28780344 64.32920146 -71.26667685 65.28725826 -70.25 66.25 C-67.39216818 68.78318262 -67.39216818 68.78318262 -63.4375 68.1875 C-62.40625 67.919375 -61.375 67.65125 -60.3125 67.375 C-59.42693256 65.68526274 -59.42693256 65.68526274 -59.3125 63.375 C-62.6116382 56.92016439 -67.79966409 51.6150636 -74.6875 49.18359375 C-76.99594584 48.53814014 -79.31792359 47.93860392 -81.65234375 47.39453125 C-82.96912109 46.88986328 -82.96912109 46.88986328 -84.3125 46.375 C-85.19140625 44.26171875 -85.19140625 44.26171875 -85.3125 42.375 C-73.36903487 41.61668475 -66.22273772 46.76289043 -57.25390625 54.046875 C-54.80604349 55.72146924 -53.21654846 55.61700404 -50.3125 55.375 C-49.00735264 53.15723378 -49.00735264 53.15723378 -48.3125 50.375 C-50.46361236 44.53626645 -56.30143351 40.01463957 -61.63671875 37.109375 C-67.98039307 34.37168624 -74.49128623 33.26574269 -81.3125 32.375 C-81.3125 31.055 -81.3125 29.735 -81.3125 28.375 C-68.86237007 27.59279288 -59.86286616 31.01873002 -49.3125 37.375 C-48.3225 36.715 -47.3325 36.055 -46.3125 35.375 C-46.37948314 32.02584281 -46.52006372 29.37475973 -48.65625 26.6796875 C-56.85493545 19.26360384 -66.69690905 18.02255364 -77.41796875 18.16796875 C-86.17693662 18.79445363 -91.99193692 24.62334627 -97.5390625 30.890625 Z M21.97265625 64.66796875 C17.2137317 67.14079875 13.74526528 66.12605401 8.625 65.125 C6.7392843 64.810335 4.85254973 64.50171483 2.96484375 64.19921875 C2.05589355 64.05145996 1.14694336 63.90370117 0.21044922 63.75146484 C-11.39036734 62.02043532 -23.49781256 63.50111045 -33.3125 70.375 C-33.3125 71.035 -33.3125 71.695 -33.3125 72.375 C-34.3025 72.705 -35.2925 73.035 -36.3125 73.375 C-42.23308895 80.77573618 -44.5235356 89.97770879 -44.3125 99.375 C-42.93927197 108.78331437 -40.10533528 118.06209118 -35 126.125 C-32.97420732 130.02652664 -33.06714713 131.22382375 -34.3125 135.375 C-35.06274717 137.68313748 -35.82858719 139.98458447 -36.61328125 142.28125 C-39.51165634 150.96018322 -38.7639518 159.00587814 -35.3125 167.375 C-29.5760708 178.16991677 -20.89368275 184.62427648 -9.4375 188.5 C19.20349211 196.81407085 51.16514418 192.91753825 77.26586914 178.69091797 C90.5338166 171.04218898 102.73543926 161.54853581 107.2734375 146.421875 C109.1584687 137.10341886 107.31460274 128.22853757 102.33203125 120.1875 C100.35091332 117.46811024 98.30507291 114.95729947 95.85375977 112.64599609 C92.08473576 108.95805311 90.22836201 106.38532384 90.109375 101.01953125 C90.18857917 99.07405802 90.29903729 97.12965537 90.4375 95.1875 C90.50788617 93.13835429 90.56785865 91.08882323 90.6171875 89.0390625 C90.64135742 88.06098633 90.66552734 87.08291016 90.69042969 86.07519531 C90.68023243 76.67672329 87.63751365 67.7172174 81.6875 60.375 C81.0275 60.375 80.3675 60.375 79.6875 60.375 C79.6875 59.715 79.6875 59.055 79.6875 58.375 C79.0275 58.375 78.3675 58.375 77.6875 58.375 C77.6875 57.715 77.6875 57.055 77.6875 56.375 C76.22945831 55.56197675 74.77105685 54.74959869 73.3125 53.9375 C72.50039063 53.48503906 71.68828125 53.03257812 70.8515625 52.56640625 C55.54571876 44.13990383 33.92260174 54.57499321 21.97265625 64.66796875 Z M-80.3125 66.375 C-80.33828125 67.01566406 -80.3640625 67.65632813 -80.390625 68.31640625 C-80.77504866 74.17886704 -81.4582407 78.79806708 -85.3125 83.375 C-86.64858694 84.5009765 -88.00424337 85.60399751 -89.375 86.6875 C-94.0212605 90.47718734 -95.20110101 94.62119479 -96.3125 100.375 C-95.425625 99.900625 -94.53875 99.42625 -93.625 98.9375 C-88.09272865 96.32793804 -83.04486493 96.24227369 -77 96.3125 C-76.25943359 96.31701172 -75.51886719 96.32152344 -74.75585938 96.32617188 C-72.94137101 96.33787825 -71.12692466 96.35581102 -69.3125 96.375 C-69.26351562 95.69695312 -69.21453125 95.01890625 -69.1640625 94.3203125 C-68.64685787 87.88200659 -67.72068879 81.67767023 -66.3125 75.375 C-67.199375 74.983125 -68.08625 74.59125 -69 74.1875 C-72.44183227 72.30423328 -74.59420766 70.1667597 -77.3125 67.375 C-78.3025 67.045 -79.2925 66.715 -80.3125 66.375 Z M-107.3125 153.375 C-107.33983632 156.33339768 -107.35949906 159.29153497 -107.375 162.25 C-107.38337891 163.07242188 -107.39175781 163.89484375 -107.40039062 164.7421875 C-107.40361328 165.5671875 -107.40683594 166.3921875 -107.41015625 167.2421875 C-107.41539307 167.98581543 -107.42062988 168.72944336 -107.42602539 169.49560547 C-107.25600646 173.80787052 -106.77270429 178.0852607 -106.3125 182.375 C-105.46924164 182.3904612 -105.46924164 182.3904612 -104.60894775 182.40623474 C-98.70290781 182.51528731 -92.7969906 182.62979108 -86.89111328 182.74731445 C-84.69354852 182.79035023 -82.49595702 182.83204398 -80.29833984 182.87231445 C-77.12068659 182.93078558 -73.94316413 182.99424907 -70.765625 183.05859375 C-69.7994928 183.07530624 -68.8333606 183.09201874 -67.83795166 183.10923767 C-61.8469089 183.23634821 -55.91558484 183.60645103 -49.94836426 184.15783691 C-46.46866941 184.44452135 -43.05375747 184.47241257 -39.5625 184.4375 C-38.37140625 184.42847656 -37.1803125 184.41945313 -35.953125 184.41015625 C-34.64601562 184.39275391 -34.64601562 184.39275391 -33.3125 184.375 C-34.49779297 183.43914062 -34.49779297 183.43914062 -35.70703125 182.484375 C-38.3125 180.375 -38.3125 180.375 -40 178.625 C-41.25179598 177.14511494 -41.25179598 177.14511494 -43.3125 177.375 C-43.3125 176.715 -43.3125 176.055 -43.3125 175.375 C-44.96252828 174.02113064 -46.6299387 172.68821858 -48.3125 171.375 C-48.8075 170.385 -48.8075 170.385 -49.3125 169.375 C-50.94445312 169.71724609 -50.94445312 169.71724609 -52.609375 170.06640625 C-69.7554542 173.49444743 -82.96003666 172.10286204 -97.85546875 162.2578125 C-101.25991955 159.64899646 -103.69021232 156.75637095 -106.3125 153.375 C-106.6425 153.375 -106.9725 153.375 -107.3125 153.375 Z " fill="#393939" transform="translate(233.3125,171.625)"/>
<path d="M0 0 C29.48723657 0.36752116 29.48723657 0.36752116 40 5 C40.93070312 5.37253906 41.86140625 5.74507812 42.8203125 6.12890625 C57.69413914 12.40574395 71.02876331 22.43773879 80 36 C80.71484375 38.29296875 80.71484375 38.29296875 81 40 C81.81984375 39.57847656 82.6396875 39.15695313 83.484375 38.72265625 C84.56203125 38.17480469 85.6396875 37.62695312 86.75 37.0625 C87.81734375 36.51722656 88.8846875 35.97195312 89.984375 35.41015625 C97.54538012 31.87450489 106.8435323 31.79521783 114.92578125 33.68359375 C121.35512689 36.09334849 128.24043578 39.62750192 131.5 45.875 C131.665 46.57625 131.83 47.2775 132 48 C132.66 48 133.32 48 134 48 C136.68219822 53.36439644 137.3152595 57.01006953 137 63 C136.34 63 135.68 63 135 63 C134.67 63.66 134.34 64.32 134 65 C133.67 64.01 133.34 63.02 133 62 C132.34 62 131.68 62 131 62 C130.74605469 61.31292969 130.49210938 60.62585938 130.23046875 59.91796875 C129.88628906 59.01691406 129.54210937 58.11585938 129.1875 57.1875 C128.85105469 56.29417969 128.51460937 55.40085938 128.16796875 54.48046875 C127.02858126 52.06069934 125.90307681 50.81582974 124 49 C124 48.34 124 47.68 124 47 C123.443125 46.731875 122.88625 46.46375 122.3125 46.1875 C120 45 120 45 117.8125 43.5 C111.56672764 40.16892141 104.90140479 39.20129746 98 41 C94.59381255 42.18005587 91.28595021 43.51908706 88 45 C87.26265625 45.31066406 86.5253125 45.62132812 85.765625 45.94140625 C83.65647387 46.94551436 83.65647387 46.94551436 83 50 C81.35 50 79.7 50 78 50 C77.61070312 49.18917969 77.22140625 48.37835938 76.8203125 47.54296875 C69.7871729 33.62253806 60.4824679 24.61181616 47 17 C46.12988281 16.50757813 45.25976562 16.01515625 44.36328125 15.5078125 C30.19949008 8.34809389 13.62462005 6.26431104 -2 5 C-1.34 3.35 -0.68 1.7 0 0 Z " fill="#383838" transform="translate(260,187)"/>
<path d="M0 0 C1.32 0.33 2.64 0.66 4 1 C4 1.66 4 2.32 4 3 C8.455 2.505 8.455 2.505 13 2 C12.25 9.625 12.25 9.625 10 13 C9.01 13 8.02 13 7 13 C7 14.98 7 16.96 7 19 C6.67 19 6.34 19 6 19 C6 15.7 6 12.4 6 9 C1.83757047 10.95889023 1.83757047 10.95889023 0.10546875 14.578125 C-0.20664551 15.31514648 -0.51875977 16.05216797 -0.84033203 16.81152344 C-1.32155518 18.01856934 -1.32155518 18.01856934 -1.8125 19.25 C-2.15651855 20.09336914 -2.50053711 20.93673828 -2.85498047 21.80566406 C-19.32172497 63.05951088 -25.03072664 104.97686493 -26 149 C-27.65 148.67 -29.3 148.34 -31 148 C-31.99917549 142.9749569 -32.19090069 138.13608447 -32.23828125 133.03515625 C-32.24798447 132.17312088 -32.25768768 131.31108551 -32.26768494 130.42292786 C-32.29260488 127.63607115 -32.30521165 124.849457 -32.3125 122.0625 C-32.31511841 121.1148175 -32.31773682 120.16713501 -32.32043457 119.19073486 C-32.32472112 104.74476239 -31.48149553 91.07282905 -28 77 C-27.68303486 75.60458808 -27.36785092 74.20877003 -27.0546875 72.8125 C-26.29876576 69.5429881 -25.45421259 66.30277251 -24.56396484 63.06689453 C-23.95630693 60.83986772 -23.37931372 58.60585321 -22.80078125 56.37109375 C-17.86124817 37.79129909 -11.06031524 19.45158646 -3 2 C-2.01 2 -1.02 2 0 2 C0 1.34 0 0.68 0 0 Z " fill="#383838" transform="translate(106,237)"/>
<path d="M0 0 C2.58827553 -0.47059555 4.36260556 -0.38152826 6.64453125 0.984375 C13.19602458 6.24923194 19.08548207 14.11365738 22 22 C22.21850097 24.72133024 22.14163685 27.26168752 22 30 C19.69 30.33 17.38 30.66 15 31 C15.66 32.98 16.32 34.96 17 37 C18.65 37 20.3 37 22 37 C22.66 38.32 23.32 39.64 24 41 C24.66 41 25.32 41 26 41 C28.7803188 43.98220916 31.25779125 47.20822472 33.765625 50.42138672 C34.96733171 51.95822129 36.18657504 53.48129254 37.40625 55.00390625 C38.1384375 55.95136719 38.870625 56.89882813 39.625 57.875 C40.29789062 58.73867188 40.97078125 59.60234375 41.6640625 60.4921875 C43 63 43 63 42.7109375 65.8203125 C42.47632813 66.53960937 42.24171875 67.25890625 42 68 C39.17144597 68.22510984 37.48301709 68.28602188 35.0078125 66.8203125 C29.76341643 62.09817994 25.81572267 56.92629427 22 51 C22 55.12335484 22.4762011 59.1835297 22.87890625 63.28515625 C23 66 23 66 22 68 C20.35 67.67 18.7 67.34 17 67 C15.36738249 62.39702552 14.2311806 57.76209866 13.1875 53 C10.16254226 39.64043116 10.16254226 39.64043116 4.34765625 27.359375 C3 25 3 25 3 21 C7.21015871 20.04314575 9.25712373 19.86818786 13 22 C12.566875 21.37351562 12.13375 20.74703125 11.6875 20.1015625 C11.130625 19.28429687 10.57375 18.46703125 10 17.625 C9.443125 16.81289063 8.88625 16.00078125 8.3125 15.1640625 C7 13 7 13 7 11 C6.34 11 5.68 11 5 11 C5 10.34 5 9.68 5 9 C4.34 9 3.68 9 3 9 C3 8.34 3 7.68 3 7 C1.68 6.34 0.36 5.68 -1 5 C-0.67 3.35 -0.34 1.7 0 0 Z " fill="#373737" transform="translate(327,391)"/>
<path d="M0 0 C2.87894397 2.13274709 5.65379882 4.28234204 7.9375 7.0625 C7.9375 7.7225 7.9375 8.3825 7.9375 9.0625 C6.2875 9.3925 4.6375 9.7225 2.9375 10.0625 C2.4425 11.5475 2.4425 11.5475 1.9375 13.0625 C1.380625 12.299375 0.82375 11.53625 0.25 10.75 C-5.43901796 4.13843859 -13.88120124 2.53639928 -22.265625 1.76953125 C-30.79131567 1.54460725 -36.82833523 3.38641112 -43.18359375 9.14453125 C-54.42409758 20.61872539 -63.0175004 34.26309096 -71.0625 48.0625 C-70.0725 48.0625 -69.0825 48.0625 -68.0625 48.0625 C-66.72268514 48.3687434 -65.38738113 48.69701555 -64.0625 49.0625 C-63.12826355 52.07281744 -63.01800089 52.92900268 -64.0625 56.0625 C-64.10416002 58.3954614 -64.10416002 60.7295386 -64.0625 63.0625 C-64.0625 64.0525 -64.0625 65.0425 -64.0625 66.0625 C-64.7225 66.0625 -65.3825 66.0625 -66.0625 66.0625 C-66.08975341 64.3334226 -66.10900987 62.60421824 -66.125 60.875 C-66.14240234 59.43060547 -66.14240234 59.43060547 -66.16015625 57.95703125 C-66.06736622 55.20673487 -65.68361685 52.73770409 -65.0625 50.0625 C-69.5175 50.5575 -69.5175 50.5575 -74.0625 51.0625 C-74.0625 50.4025 -74.0625 49.7425 -74.0625 49.0625 C-75.3825 48.7325 -76.7025 48.4025 -78.0625 48.0625 C-78.0625 48.7225 -78.0625 49.3825 -78.0625 50.0625 C-78.7225 50.0625 -79.3825 50.0625 -80.0625 50.0625 C-78.15584664 43.61069318 -74.73906832 38.35561042 -71.14160156 32.74853516 C-70.14250241 31.18749924 -69.1603326 29.61566307 -68.1796875 28.04296875 C-64.39173874 22.12330825 -60.22884558 16.66383184 -55.6875 11.3125 C-55.16317383 10.69125244 -54.63884766 10.07000488 -54.09863281 9.42993164 C-52.80012865 7.93216257 -51.43643402 6.49139138 -50.0625 5.0625 C-49.4025 5.0625 -48.7425 5.0625 -48.0625 5.0625 C-48.0625 4.4025 -48.0625 3.7425 -48.0625 3.0625 C-47.4025 3.0625 -46.7425 3.0625 -46.0625 3.0625 C-45.7840625 2.19625 -45.7840625 2.19625 -45.5 1.3125 C-43.03989564 -2.53809813 -39.06041914 -4.42374936 -34.73828125 -5.53515625 C-23.09814335 -7.28542516 -10.07798773 -6.50458359 0 0 Z " fill="#424242" transform="translate(184.0625,188.9375)"/>
<path d="M0 0 C0.33 0 0.66 0 1 0 C1.03758423 1.31605225 1.03758423 1.31605225 1.07592773 2.65869141 C1.17145384 5.93517191 1.27066243 9.21149898 1.37231445 12.48779297 C1.41544251 13.90181165 1.45713168 15.31587502 1.49731445 16.72998047 C1.5555575 18.7706444 1.61909141 20.81108795 1.68359375 22.8515625 C1.72025146 24.07697754 1.75690918 25.30239258 1.79467773 26.56494141 C1.98672113 29.77784342 2.4055394 32.83941587 3 36 C3.99 36 4.98 36 6 36 C6.33 32.7 6.66 29.4 7 26 C7.33 26 7.66 26 8 26 C8.19335938 27.16917969 8.38671875 28.33835937 8.5859375 29.54296875 C8.84866686 31.09119532 9.11170392 32.6393697 9.375 34.1875 C9.50132813 34.95642578 9.62765625 35.72535156 9.7578125 36.51757812 C10.45464362 40.57661938 11.2621127 44.22954016 13 48 C14.12714965 46.00070835 14.12714965 46.00070835 14.375 43.5625 C15.06495509 40.73368414 15.58243901 39.61170733 18 38 C19.98046875 38.13671875 19.98046875 38.13671875 22 39 C23.125 41.07421875 23.125 41.07421875 24 43.6875 C25.55253036 47.98160182 27.29882306 51.33411701 30 55 C30.33 53.35 30.66 51.7 31 50 C30.34 49.67 29.68 49.34 29 49 C29.99 46.69 30.98 44.38 32 42 C33.32 42 34.64 42 36 42 C37.75 44 37.75 44 39 46 C38.505 46.99 38.505 46.99 38 48 C36.33333333 48 34.66666667 48 33 48 C33 50.97 33 53.94 33 57 C33.99 56.01 34.98 55.02 36 54 C39.875 55.75 39.875 55.75 41 58 C40.01 57.67 39.02 57.34 38 57 C37.525625 57.969375 37.05125 58.93875 36.5625 59.9375 C35 63 35 63 34 64 C30.45868435 64 27.94420806 63.81899786 25.203125 61.44140625 C21 56.62782738 21 56.62782738 21 54 C20.34 54 19.68 54 19 54 C18.773125 54.639375 18.54625 55.27875 18.3125 55.9375 C17 58 17 58 14.6875 59.0625 C12 59 12 59 9.4375 57.125 C-2.89511625 41.31395353 -1.28281129 18.86719372 0 0 Z " fill="#494949" transform="translate(73,349)"/>
<path d="M0 0 C2.0625 0.4375 2.0625 0.4375 4 1 C4.7421875 2.59375 4.7421875 2.59375 5 5 C3.79180682 7.31132609 2.5787894 9.35578219 1.125 11.5 C-2.24577286 16.39034458 -2.24577286 16.39034458 -4 22 C-2.9171875 21.2265625 -2.9171875 21.2265625 -1.8125 20.4375 C1.4195366 18.78557018 2.61608307 18.93648325 6 20 C5.61310543 23.32729327 5.13822543 26.48680134 4.265625 29.7265625 C2.01153467 38.12623871 1.77438447 45.8041661 1.9921875 54.421875 C1.99476563 55.60265625 1.99734375 56.7834375 2 58 C1 59 1 59 -1.5625 59.0625 C-2.366875 59.041875 -3.17125 59.02125 -4 59 C-6.09931894 54.71805581 -6.30248898 50.80526701 -6.25 46.125 C-6.25773438 45.44308594 -6.26546875 44.76117188 -6.2734375 44.05859375 C-6.25553742 39.35982327 -5.46832452 35.4632404 -4 31 C-5.11375 31.061875 -6.2275 31.12375 -7.375 31.1875 C-8.57125 31.125625 -9.7675 31.06375 -11 31 C-13 28 -13 28 -12.86328125 25.80078125 C-10.58473092 15.50690493 -7.64411984 7.64411984 0 0 Z " fill="#3B3B3B" transform="translate(217,391)"/>
<path d="M0 0 C0.66 0.33 1.32 0.66 2 1 C2.39059018 7.01798203 1.80977239 12.5255453 0.625 18.4375 C-3.34696079 38.45233023 -3.55229547 58.66584284 -4 79 C-5.65 78.67 -7.3 78.34 -9 78 C-9.9991736 72.97496641 -10.19093549 68.13607849 -10.23828125 63.03515625 C-10.24793915 62.17262238 -10.25759705 61.3100885 -10.26754761 60.42141724 C-10.29234281 57.63506782 -10.30493617 54.84894779 -10.3125 52.0625 C-10.31545074 51.11847321 -10.31840149 50.17444641 -10.32144165 49.20181274 C-10.34817835 11.71736431 -10.34817835 11.71736431 -3 2 C-2.01 1.34 -1.02 0.68 0 0 Z " fill="#2E2E2E" transform="translate(84,307)"/>
<path d="M0 0 C1.60756753 1.11955596 3.11569628 2.17819628 4.5 3.5625 C4.54063832 5.22867115 4.542721 6.89638095 4.5 8.5625 C0.5 8.5625 0.5 8.5625 -2.75 6.5 C-6.21507758 4.42243743 -8.62352081 4.12349919 -12.57421875 4.890625 C-17.04998545 6.4521501 -19.766699 9.12778066 -21.9375 13.375 C-23.05556576 19.71070598 -21.97989972 25.09408616 -18.5 30.5625 C-15.94860147 32.90575664 -15.94860147 32.90575664 -13.5 34.5625 C-14.16 35.8825 -14.82 37.2025 -15.5 38.5625 C-20.26214292 38.14231092 -23.34698525 36.02356792 -26.5 32.5625 C-30.38082957 26.35317269 -30.27093108 19.72241163 -29.5 12.5625 C-27.94353744 6.53243122 -24.45911888 3.24608716 -19.5 -0.30859375 C-13.32950635 -3.79154817 -5.95689193 -3.71770054 0 0 Z " fill="#424242" transform="translate(372.5,240.4375)"/>
<path d="M0 0 C9.69320986 0.15606241 19.57360018 6.12672959 26.6875 12.375 C26.6875 13.035 26.6875 13.695 26.6875 14.375 C27.86505859 14.35759766 27.86505859 14.35759766 29.06640625 14.33984375 C34.72469775 14.29124493 40.11628878 14.36205251 45.6875 15.375 C45.6875 15.705 45.6875 16.035 45.6875 16.375 C39.27061325 16.47849817 33.06055598 16.12007544 26.6875 15.375 C26.6875 16.695 26.6875 18.015 26.6875 19.375 C31.9675 20.035 37.2475 20.695 42.6875 21.375 C42.6875 21.705 42.6875 22.035 42.6875 22.375 C27.72407617 23.44624512 27.72407617 23.44624512 23.05859375 20.9921875 C21.125 19.1875 21.125 19.1875 19.390625 17.26171875 C16.00144736 13.50719397 11.45202749 10.96317583 6.6875 9.375 C6.98785156 9.89449219 7.28820312 10.41398438 7.59765625 10.94921875 C10.74238851 16.71633791 10.74238851 16.71633791 10.4375 20.375 C10.19 21.035 9.9425 21.695 9.6875 22.375 C6.14082822 23.62627906 3.96496562 23.09785053 0.4375 21.9375 C-0.45453125 21.65003906 -1.3465625 21.36257812 -2.265625 21.06640625 C-2.94109375 20.83824219 -3.6165625 20.61007813 -4.3125 20.375 C-2.9925 19.385 -1.6725 18.395 -0.3125 17.375 C-0.6425 17.045 -0.9725 16.715 -1.3125 16.375 C-1.6425 15.715 -1.9725 15.055 -2.3125 14.375 C-2.9725 14.045 -3.6325 13.715 -4.3125 13.375 C-2.9925 13.375 -1.6725 13.375 -0.3125 13.375 C-0.9725 12.50875 -1.6325 11.6425 -2.3125 10.75 C-4.44270925 7.15527189 -4.78732219 5.4584708 -4.3125 1.375 C-3.3125 0.375 -3.3125 0.375 0 0 Z " fill="#4B4B4B" transform="translate(233.3125,171.625)"/>
<path d="M0 0 C4.74926713 3.48551365 8.03128734 7.71328699 9.8203125 13.3359375 C10.05078125 16.37890625 10.05078125 16.37890625 10.0078125 19.5234375 C10.00136719 20.56886719 9.99492187 21.61429687 9.98828125 22.69140625 C9.8203125 25.3359375 9.8203125 25.3359375 8.8203125 27.3359375 C8.1603125 27.3359375 7.5003125 27.3359375 6.8203125 27.3359375 C6.8203125 28.3259375 6.8203125 29.3159375 6.8203125 30.3359375 C5.5003125 30.3359375 4.1803125 30.3359375 2.8203125 30.3359375 C2.76423828 28.94181641 2.76423828 28.94181641 2.70703125 27.51953125 C2.20894474 16.33334509 2.20894474 16.33334509 -3.2421875 6.8984375 C-8.53238002 4.08450531 -14.52082533 4.72845471 -20.1796875 6.3359375 C-20.1796875 6.9959375 -20.1796875 7.6559375 -20.1796875 8.3359375 C-20.8396875 8.3359375 -21.4996875 8.3359375 -22.1796875 8.3359375 C-22.4271875 9.3053125 -22.6746875 10.2746875 -22.9296875 11.2734375 C-23.3421875 12.2840625 -23.7546875 13.2946875 -24.1796875 14.3359375 C-26.3046875 15.2109375 -26.3046875 15.2109375 -28.1796875 15.3359375 C-29.27734375 13.5859375 -29.27734375 13.5859375 -30.1796875 11.3359375 C-28.86427569 6.11507823 -25.67923122 2.18930669 -21.1796875 -0.6640625 C-14.6143121 -4.41570559 -6.41059055 -3.65948691 0 0 Z " fill="#383838" transform="translate(168.1796875,286.6640625)"/>
<path d="M0 0 C11.1095634 -1.54145192 20.32495349 0.58554472 29.5 6.9375 C32.46578236 9.28740417 34.10837941 11.21061248 35 15 C35.66 15 36.32 15 37 15 C39.68219822 20.36439644 40.3152595 24.01006953 40 30 C39.34 30 38.68 30 38 30 C37.67 30.66 37.34 31.32 37 32 C36.505 30.515 36.505 30.515 36 29 C35.34 29 34.68 29 34 29 C33.61908203 27.96939453 33.61908203 27.96939453 33.23046875 26.91796875 C32.88628906 26.01691406 32.54210937 25.11585938 32.1875 24.1875 C31.85105469 23.29417969 31.51460938 22.40085938 31.16796875 21.48046875 C30.02858126 19.06069934 28.90307681 17.81582974 27 16 C27 15.34 27 14.68 27 14 C26.443125 13.731875 25.88625 13.46375 25.3125 13.1875 C23 12 23 12 20.5625 10.4375 C17.97938206 8.98843384 15.91240988 8.41605855 13 8 C13 7.34 13 6.68 13 6 C11.10424749 5.97278824 9.20838021 5.95350864 7.3125 5.9375 C6.25675781 5.92589844 5.20101563 5.91429687 4.11328125 5.90234375 C1.27589738 5.99134575 -1.2438919 6.35060162 -4 7 C-4 5 -4 5 -2 3 C-1.34 2.01 -0.68 1.02 0 0 Z " fill="#2F2F2F" transform="translate(357,220)"/>
<path d="M0 0 C0 0.66 0 1.32 0 2 C-0.66 2 -1.32 2 -2 2 C-3.19838209 4.32854463 -3.19838209 4.32854463 -4 7 C-3.34 7.99 -2.68 8.98 -2 10 C-15.56168289 18.21367066 -32.59300269 27.82034987 -49 27 C-46.38058783 25.25372522 -44.96175123 24.61277612 -42 24 C-42.33 23.34 -42.66 22.68 -43 22 C-45.32156597 21.59270772 -47.6568787 21.25561323 -50 21 C-50 20.67 -50 20.34 -50 20 C-48.47632813 19.63648438 -48.47632813 19.63648438 -46.921875 19.265625 C-33.87829511 16.11338672 -11.05003721 0 0 0 Z " fill="#454545" transform="translate(323,342)"/>
<path d="M0 0 C3.28052484 2.70999878 5.7773174 4.90459328 6.23828125 9.2421875 C6.4375239 16.31005846 6.4375239 16.31005846 4.375 19.5625 C1.42872403 21.3457723 -0.54821594 21.92955543 -4 22 C-7.37786607 20.66456458 -8.76461024 19.32954567 -10.875 16.375 C-12.34975435 11.95073696 -12.23276383 8.4804589 -11 4 C-8.13007036 -0.52565827 -5.14293082 -0.81204171 0 0 Z " fill="#232323" transform="translate(227,276)"/>
<path d="M0 0 C4.31290923 0.8471786 5.77021358 2.3154109 8.5 5.6875 C10.23422892 9.15595783 9.96502956 12.89521673 9.5 16.6875 C7.58170307 20.22897126 6.39210736 21.35780815 2.625 22.75 C-1.53893433 22.66672131 -3.34570731 21.3399734 -6.5 18.6875 C-8.82770814 15.72496237 -8.98665837 12.45316052 -8.875 8.7265625 C-7.94500146 3.66969544 -5.05935753 0.99380237 0 0 Z " fill="#2C2C2C" transform="translate(295.5,262.3125)"/>
<path d="M0 0 C3.16689171 1.642092 5.26978807 3.04754965 7.4375 5.875 C8.26138749 8.98746386 7.94249038 10.92119808 7 14 C4.5 16.8125 4.5 16.8125 2 19 C1.67 19.33 1.34 19.66 1 20 C-0.78837622 20.12524459 -2.58228214 20.17573676 -4.375 20.1875 C-5.35210937 20.20167969 -6.32921875 20.21585937 -7.3359375 20.23046875 C-10 20 -10 20 -13 18 C-12.67 16.35 -12.34 14.7 -12 13 C-11.07767578 13.03480469 -11.07767578 13.03480469 -10.13671875 13.0703125 C-8.92435547 13.09738281 -8.92435547 13.09738281 -7.6875 13.125 C-6.48673828 13.15980469 -6.48673828 13.15980469 -5.26171875 13.1953125 C-2.71611424 13.15817322 -2.71611424 13.15817322 0 11 C-0.33 10.01 -0.66 9.02 -1 8 C-4.3324787 7.66582071 -4.3324787 7.66582071 -8 8 C-9.37195574 9.29355827 -10.71182656 10.62298702 -12 12 C-14.25 11.75 -14.25 11.75 -16 11 C-15.68031467 7.48346139 -15.37757864 5.46568032 -13.125 2.6875 C-9.20339151 -0.42671851 -4.83613713 -0.66736864 0 0 Z " fill="#545454" transform="translate(275,327)"/>
<path d="M0 0 C4.56213892 8.51599264 3.45403439 16.94893934 0.96875 26.015625 C-1.92500238 34.93024925 -6.49175033 41.3141058 -13 48 C-13.99 46.68 -14.98 45.36 -16 44 C-15.34 43.01 -14.68 42.02 -14 41 C-14.33 40.34 -14.66 39.68 -15 39 C-13.98082209 37.35432743 -12.88140623 35.758131 -11.75 34.1875 C-5.86680296 25.21591809 -4.3544615 15.59161321 -5 5 C-4.34 5.66 -3.68 6.32 -3 7 C-2.01 6.67 -1.02 6.34 0 6 C0 4.02 0 2.04 0 0 Z M-12 37 C-12 37.99 -12 38.98 -12 40 C-11.34 39.01 -10.68 38.02 -10 37 C-10.66 37 -11.32 37 -12 37 Z " fill="#424242" transform="translate(397,244)"/>
<path d="M0 0 C2.0625 0.4375 2.0625 0.4375 4 1 C4.7421875 2.59375 4.7421875 2.59375 5 5 C3.79180682 7.31132609 2.5787894 9.35578219 1.125 11.5 C-2.24577286 16.39034458 -2.24577286 16.39034458 -4 22 C-2.68 21.67 -1.36 21.34 0 21 C-0.66 21.99 -1.32 22.98 -2 24 C-2.99 24 -3.98 24 -5 24 C-5 25.65 -5 27.3 -5 29 C-4.34 29 -3.68 29 -3 29 C-3.33 30.32 -3.66 31.64 -4 33 C-4 32.34 -4 31.68 -4 31 C-5.11375 31.061875 -6.2275 31.12375 -7.375 31.1875 C-8.57125 31.125625 -9.7675 31.06375 -11 31 C-13 28 -13 28 -12.86328125 25.80078125 C-10.58473092 15.50690493 -7.64411984 7.64411984 0 0 Z " fill="#454545" transform="translate(217,391)"/>
<path d="M0 0 C0 1.65 0 3.3 0 5 C-0.66 5 -1.32 5 -2 5 C-2 5.66 -2 6.32 -2 7 C-11.15179259 9.17985611 -19.86020561 9.52802824 -29 7 C-29.33 5.68 -29.66 4.36 -30 3 C-26.33012779 1.77670926 -23.66032178 2.11978994 -19.8125 2.4375 C-17.90404297 2.59025391 -17.90404297 2.59025391 -15.95703125 2.74609375 C-14.49330078 2.87177734 -14.49330078 2.87177734 -13 3 C-13 2.34 -13 1.68 -13 1 C-8.60563789 0.14256349 -4.47427924 -0.08948558 0 0 Z " fill="#343434" transform="translate(180,336)"/>
<path d="M0 0 C3.875 0.875 3.875 0.875 5 2 C5.29684878 3.36961911 5.56242355 4.7460738 5.8125 6.125 C7.31396389 13.06927047 10.02327811 17.84949869 16 22 C15.34 23.32 14.68 24.64 14 26 C9.23785708 25.57981092 6.15301475 23.46106792 3 20 C-0.93973603 13.69642235 -0.29446251 7.25250268 0 0 Z " fill="#232323" transform="translate(343,253)"/>
<path d="M0 0 C2.77765279 2.45087011 2.88385033 4.25775498 3.125 7.875 C0.25 8.5 0.25 8.5 -2.875 8.875 C-3.535 8.215 -4.195 7.555 -4.875 6.875 C-7.95847826 6.70818891 -7.95847826 6.70818891 -10.875 6.875 C-11.143125 7.514375 -11.41125 8.15375 -11.6875 8.8125 C-12.875 10.875 -12.875 10.875 -15.875 11.875 C-18.875 9.875 -18.875 9.875 -19.4375 7.5625 C-18.58812028 3.50435244 -16.17010045 2.20095326 -12.875 -0.125 C-8.32261336 -1.64246221 -4.49835344 -1.76022526 0 0 Z " fill="#575757" transform="translate(271.875,292.125)"/>
<path d="M0 0 C0 0.33 0 0.66 0 1 C-1.134375 1.28875 -2.26875 1.5775 -3.4375 1.875 C-4.613125 2.24625 -5.78875 2.6175 -7 3 C-7.33 3.66 -7.66 4.32 -8 5 C-5.69 5.33 -3.38 5.66 -1 6 C-1 6.33 -1 6.66 -1 7 C-1.90492188 7.09087891 -1.90492188 7.09087891 -2.828125 7.18359375 C-4.02695313 7.30927734 -4.02695313 7.30927734 -5.25 7.4375 C-6.03890625 7.51871094 -6.8278125 7.59992188 -7.640625 7.68359375 C-9.82364639 7.97634993 -11.8773182 8.42064419 -14 9 C-14 9.66 -14 10.32 -14 11 C-14.66 11 -15.32 11 -16 11 C-16.2475 11.969375 -16.495 12.93875 -16.75 13.9375 C-17.1625 14.948125 -17.575 15.95875 -18 17 C-20.125 17.875 -20.125 17.875 -22 18 C-23.09765625 16.25 -23.09765625 16.25 -24 14 C-22.68458819 8.77914073 -19.49954372 4.85336919 -15 2 C-10.26933625 -0.70323643 -5.28534873 -0.18473064 0 0 Z " fill="#575757" transform="translate(162,284)"/>
<path d="M0 0 C0.99 0 1.98 0 3 0 C3.76182137 7.92294221 3.76182137 7.92294221 1.1875 11.5625 C-3.45699672 13.65707695 -7.97685154 13.66871636 -13 13 C-13.99 12.34 -14.98 11.68 -16 11 C-15.67 9.35 -15.34 7.7 -15 6 C-11.04 6 -7.08 6 -3 6 C-2.01 4.02 -1.02 2.04 0 0 Z " fill="#353535" transform="translate(278,334)"/>
<path d="M0 0 C0.33 0 0.66 0 1 0 C1 1.65 1 3.3 1 5 C2.32 5 3.64 5 5 5 C5.33 4.01 5.66 3.02 6 2 C6 2.66 6 3.32 6 4 C6.639375 4.103125 7.27875 4.20625 7.9375 4.3125 C8.618125 4.539375 9.29875 4.76625 10 5 C11.38324907 9.14974722 11.7745275 13.141134 10.0625 17.25 C9.711875 17.8275 9.36125 18.405 9 19 C8.67 19.99 8.34 20.98 8 22 C3.40774487 12.77448747 3.40774487 12.77448747 4 7 C2.68 6.67 1.36 6.34 0 6 C-1.125 2.25 -1.125 2.25 0 0 Z " fill="#5E5E5E" transform="translate(170,312)"/>
<path d="M0 0 C1.2065625 0.0309375 1.2065625 0.0309375 2.4375 0.0625 C2.4375 1.3825 2.4375 2.7025 2.4375 4.0625 C0.7978279 5.42889342 -0.87360128 6.7574419 -2.5625 8.0625 C-3.95605764 10.02101344 -5.30532547 12.01377113 -6.5625 14.0625 C-7.5525 13.4025 -8.5425 12.7425 -9.5625 12.0625 C-9.1882368 6.69806087 -7.5665457 4.56603999 -3.5625 1.0625 C-2.5625 0.0625 -2.5625 0.0625 0 0 Z " fill="#5F5F5F" transform="translate(208.5625,245.9375)"/>
<path d="M0 0 C0.66 1.32 1.32 2.64 2 4 C1.01 4.33 0.02 4.66 -1 5 C-1.495 5.825 -1.99 6.65 -2.5 7.5 C-4 10 -4 10 -7 11 C-7.99 10.34 -8.98 9.68 -10 9 C-10.4375 6.625 -10.4375 6.625 -10 4 C-7.11625216 -0.103795 -4.87056294 -0.44277845 0 0 Z " fill="#363636" transform="translate(263,293)"/>
<path d="M0 0 C5.19463121 -0.31167787 8.67195056 -0.01956938 13 3 C14.375 6.1875 14.375 6.1875 15 9 C10.43147106 9 10.40525846 8.55394384 7 6 C4.36696404 4.87589618 1.70502158 3.94675755 -1 3 C-0.67 2.01 -0.34 1.02 0 0 Z " fill="#777777" transform="translate(292,230)"/>
<path d="M0 0 C0.391875 0.556875 0.78375 1.11375 1.1875 1.6875 C3.01883101 4.14795039 3.01883101 4.14795039 5.6875 6.5 C8 9 8 9 8 13 C5.9375 13.875 5.9375 13.875 3 14 C0.40994275 12.26080867 -1.79124879 10.19602066 -4 8 C-3.67 7.34 -3.34 6.68 -3 6 C-1.68 6.66 -0.36 7.32 1 8 C0.67 5.36 0.34 2.72 0 0 Z " fill="#575757" transform="translate(350,265)"/>
<path d="M0 0 C1.93833996 0.08715017 3.8757429 0.19532964 5.8125 0.3125 C7.43091797 0.39951172 7.43091797 0.39951172 9.08203125 0.48828125 C12.17497517 1.03068507 13.13022903 1.55289624 15 4 C13.66961551 4.3449145 12.33542939 4.67516582 11 5 C10.236875 5.226875 9.47375 5.45375 8.6875 5.6875 C5.10512569 6.10405515 2.38761205 5.12920402 -1 4 C-0.67 2.68 -0.34 1.36 0 0 Z " fill="#1C1C1C" transform="translate(151,214)"/>
<path d="M0 0 C1.32 0 2.64 0 4 0 C4.625 1.75 4.625 1.75 5 4 C4.5359375 4.8353125 4.5359375 4.8353125 4.0625 5.6875 C2.5999384 8.87072231 2.56860512 11.76510778 2.375 15.25 C2.30023438 16.51328125 2.22546875 17.7765625 2.1484375 19.078125 C2.09945313 20.04234375 2.05046875 21.0065625 2 22 C1.67 22 1.34 22 1 22 C0.93941406 21.07058594 0.87882812 20.14117187 0.81640625 19.18359375 C0.33524593 11.41035821 0.33524593 11.41035821 -0.625 3.6875 C-0.810625 2.3571875 -0.810625 2.3571875 -1 1 C-0.67 0.67 -0.34 0.34 0 0 Z " fill="#636363" transform="translate(349,279)"/>
<path d="M0 0 C1.32 0 2.64 0 4 0 C5.75 2 5.75 2 7 4 C6.67 4.66 6.34 5.32 6 6 C4.33333333 6 2.66666667 6 1 6 C0.67 8.97 0.34 11.94 0 15 C-0.66 14.67 -1.32 14.34 -2 14 C-1.67 12.02 -1.34 10.04 -1 8 C-1.66 7.67 -2.32 7.34 -3 7 C-2.01 4.69 -1.02 2.38 0 0 Z " fill="#696969" transform="translate(105,391)"/>
<path d="M0 0 C0.99 0.66 1.98 1.32 3 2 C0.03 2 -2.94 2 -6 2 C-6.33 2.99 -6.66 3.98 -7 5 C-5.88625 5.12375 -4.7725 5.2475 -3.625 5.375 C0 6 0 6 2 8 C-5.38461538 7.50769231 -5.38461538 7.50769231 -8.5 4.9375 C-8.995 4.298125 -9.49 3.65875 -10 3 C-7.29586623 -0.81760062 -4.39233505 -0.39217277 0 0 Z " fill="#A3A3A3" transform="translate(157,213)"/>
<path d="M0 0 C0.99 0.33 1.98 0.66 3 1 C2 5 2 5 1 9 C-0.32 8.67 -1.64 8.34 -3 8 C-2.25 2.25 -2.25 2.25 0 0 Z " fill="#535353" transform="translate(262,330)"/>
<path d="M0 0 C3.875 1.875 3.875 1.875 5 3 C5.04063832 4.66617115 5.042721 6.33388095 5 8 C1 8 1 8 -0.75 6.5 C-1.1625 6.005 -1.575 5.51 -2 5 C-1.34 5 -0.68 5 0 5 C0.33 4.01 0.66 3.02 1 2 C0.67 1.34 0.34 0.68 0 0 Z " fill="#6F6F6F" transform="translate(372,241)"/>
<path d="M0 0 C3 1 3 1 5 3 C5 4.32 5 5.64 5 7 C3.68 7 2.36 7 1 7 C1 6.34 1 5.68 1 5 C0.34 5 -0.32 5 -1 5 C-0.67 3.35 -0.34 1.7 0 0 Z " fill="#080808" transform="translate(420,450)"/>
<path d="M0 0 C2 2 2 2 2.23046875 4.3125 C2.21628906 5.199375 2.20210937 6.08625 2.1875 7 C2.18105469 7.886875 2.17460937 8.77375 2.16796875 9.6875 C2 12 2 12 1 14 C0.34 14 -0.32 14 -1 14 C-0.9278125 13.32453125 -0.855625 12.6490625 -0.78125 11.953125 C-0.6884375 11.06109375 -0.595625 10.1690625 -0.5 9.25 C-0.4071875 8.36828125 -0.314375 7.4865625 -0.21875 6.578125 C0.05636313 3.76695165 0.05636313 3.76695165 0 0 Z " fill="#969696" transform="translate(231,281)"/>
<path d="M0 0 C0 0.66 0 1.32 0 2 C-3.96 3.98 -3.96 3.98 -8 6 C-6.15596224 0.86303767 -5.73213298 0 0 0 Z " fill="#7E7E7E" transform="translate(129,246)"/>
<path d="M0 0 C0.33 0.66 0.66 1.32 1 2 C-0.134375 2.12375 -1.26875 2.2475 -2.4375 2.375 C-4.2009375 2.684375 -4.2009375 2.684375 -6 3 C-6.33 3.66 -6.66 4.32 -7 5 C-7.33 3.68 -7.66 2.36 -8 1 C-5.36 0.67 -2.72 0.34 0 0 Z " fill="#ABABAB" transform="translate(348,419)"/>
<path d="M0 0 C0.33 1.65 0.66 3.3 1 5 C0.5875 4.505 0.175 4.01 -0.25 3.5 C-2.12202338 1.56613908 -2.12202338 1.56613908 -6 2 C-6 1.34 -6 0.68 -6 0 C-3.50907189 -1.24546405 -2.58919267 -0.7767578 0 0 Z " fill="#828282" transform="translate(95,388)"/>
<path d="M0 0 C1.98 0 3.96 0 6 0 C6.66 1.32 7.32 2.64 8 4 C7.01 4 6.02 4 5 4 C5 3.34 5 2.68 5 2 C3.35 2 1.7 2 0 2 C0 1.34 0 0.68 0 0 Z " fill="#0D0D0D" transform="translate(293,231)"/>
<path d="M0 0 C0.99 0 1.98 0 3 0 C2.67 0.66 2.34 1.32 2 2 C1.34 1.34 0.68 0.68 0 0 Z " fill="#202020" transform="translate(257,59)"/>
<path d="" fill="#555555" transform="translate(0,0)"/>
</svg>
