<?xml version="1.0" encoding="UTF-8" standalone="no"?>
<!-- Created with Inkscape (http://www.inkscape.org/) -->

<svg
   width="210mm"
   height="296.99997mm"
   viewBox="0 0 793.70081 1122.5196"
   version="1.1"
   id="svg1"
   xml:space="preserve"
   xmlns:inkscape="http://www.inkscape.org/namespaces/inkscape"
   xmlns:sodipodi="http://sodipodi.sourceforge.net/DTD/sodipodi-0.dtd"
   xmlns="http://www.w3.org/2000/svg"
   xmlns:svg="http://www.w3.org/2000/svg"><sodipodi:namedview
     id="namedview1"
     pagecolor="#ffffff"
     bordercolor="#000000"
     borderopacity="0.25"
     inkscape:showpageshadow="2"
     inkscape:pageopacity="0.0"
     inkscape:pagecheckerboard="0"
     inkscape:deskcolor="#d1d1d1"
     inkscape:document-units="mm"
     inkscape:zoom="0.68862935"
     inkscape:cx="510.43424"
     inkscape:cy="425.48288"
     inkscape:window-width="1427"
     inkscape:window-height="942"
     inkscape:window-x="2912"
     inkscape:window-y="154"
     inkscape:window-maximized="0"
     inkscape:current-layer="layer1"><inkscape:page
       x="0"
       y="0"
       width="793.70081"
       height="1122.5197"
       id="page2"
       margin="0"
       bleed="0" /></sodipodi:namedview><defs
     id="defs1" /><g
     inkscape:label="Layer 1"
     inkscape:groupmode="layer"
     id="layer1"><g
       style="fill:none"
       id="g1"
       transform="matrix(6.6666668,0,0,6.6666668,-3.149605,161.25985)"><rect
         width="120"
         height="120"
         fill="#eff1f3"
         id="rect1"
         x="0"
         y="0" /><path
         fill-rule="evenodd"
         clip-rule="evenodd"
         d="m 33.2503,38.4816 c 0.01,-1.4344 1.1696,-2.5952 2.604,-2.6066 h 47.292 c 1.4385,0 2.604,1.1681 2.604,2.6066 v 42.0368 c -0.01,1.4344 -1.1696,2.5952 -2.604,2.6066 h -47.292 c -1.4385,-0.0014 -2.604,-1.168 -2.604,-2.6066 z m 47.2503,2.6435 h -42 v 36.75 L 62.8921,53.4783 c 1.0251,-1.0247 2.6867,-1.0247 3.7118,0 l 13.8967,13.923 z M 43.75,51.6249 c 0,2.8995 2.3505,5.25 5.25,5.25 2.8995,0 5.25,-2.3505 5.25,-5.25 0,-2.8995 -2.3505,-5.25 -5.25,-5.25 -2.8995,0 -5.25,2.3505 -5.25,5.25 z"
         fill="#687787"
         id="path1" /></g><g
       id="g2"
       transform="matrix(0.56810785,0,0,0.56810785,292.31861,453.99399)"
       style="fill:#f9a03f;fill-opacity:1"
       inkscape:export-filename="g2.png"
       inkscape:export-xdpi="96"
       inkscape:export-ydpi="96"><path
         d="m 0,0 c 9.6932099,0.15606241 19.5736,6.1267296 26.6875,12.375 0,0.66 0,1.32 0,2 1.03834,-0.03481 1.03834,-0.03481 2.097656,-0.07031 25.238734,-0.465537 48.938833,7.315415 67.535156,24.664062 10.390998,10.562463 10.390998,10.562463 11.367188,16.40625 0.81984,-0.421523 1.63969,-0.843047 2.48438,-1.277344 1.07765,-0.547851 2.15531,-1.095703 3.26562,-1.660156 1.06734,-0.545273 2.13469,-1.090547 3.23438,-1.652344 7.561,-3.535651 16.85915,-3.614938 24.9414,-1.726562 6.42935,2.409754 13.31466,5.943908 16.57422,12.191406 0.165,0.70125 0.33,1.4025 0.5,2.125 0.66,0 1.32,0 2,0 0.81542,2.08219 1.62723,4.165798 2.4375,6.25 0.45246,1.160156 0.90492,2.320312 1.37109,3.515625 4.18251,11.354483 2.00178,22.481079 -2.93359,33.359373 -6.98664,12.97221 -17.45561,19.72524 -31.11328,24.21094 -2.70259,0.64984 -4.99516,0.79508 -7.76172,0.66406 -0.0206,1.19625 -0.0413,2.3925 -0.0625,3.625 -1.27906,11.28064 -8.68132,21.08656 -15.9375,29.375 -1.00267,1.20612 -2.00312,2.4141 -3,3.625 -0.66,0.78375 -1.32,1.5675 -2,2.375 0.81984,0.47051 1.63969,0.94102 2.48438,1.42578 1.07765,0.62262 2.15531,1.24524 3.26562,1.88672 1.60102,0.92232 1.60102,0.92232 3.23438,1.86328 2.48188,1.50135 4.82461,2.9257 7.01562,4.82422 0,0.66 0,1.32 0,2 0.56977,0.25395 1.13953,0.50789 1.72656,0.76953 14.37879,7.78234 26.28057,24.74325 35.99414,37.55713 1.246,1.62978 2.51533,3.23782 3.79492,4.84131 12.03912,15.16343 21.4856,31.72828 30.48438,48.83203 0.60457,1.13309 1.20914,2.26617 1.83203,3.43359 1.37657,3.02478 1.40271,5.27998 1.16797,8.56641 -1.65,0.33 -3.3,0.66 -5,1 -0.33209,-0.61408 -0.66419,-1.22815 -1.00635,-1.86084 -1.53723,-2.83932 -3.07792,-5.67674 -4.61865,-8.51416 -0.52207,-0.96551 -1.04414,-1.93102 -1.58203,-2.92578 -3.07399,-5.65463 -6.26027,-11.18922 -9.70459,-16.62744 -1.08838,-2.07178 -1.08838,-2.07178 -1.08838,-5.07178 -0.66,0 -1.32,0 -2,0 -1.08594,-1.625 -1.08594,-1.625 -2.375,-4 -8.77982,-15.13392 -20.58186,-28.98504 -32.64063,-41.58667 -2.49714,-2.64086 -4.61758,-5.01682 -5.98437,-8.41333 -0.66,0 -1.32,0 -2,0 0,-0.66 0,-1.32 0,-2 -0.66,0 -1.32,0 -2,0 0,-0.66 0,-1.32 0,-2 -0.57363,-0.25266 -1.14727,-0.50531 -1.73828,-0.76563 -2.53754,-1.3849 -4.34424,-3.00592 -6.44922,-4.98437 -4.31693,-3.91801 -8.81528,-7.24976 -13.8125,-10.25 -0.64324,-0.40477 -1.286484,-0.80953 -1.949219,-1.22656 -2.753234,-1.03837 -4.268129,-0.65148 -7.050781,0.22656 -1.94296,1.11314 -1.94296,1.11314 -3.8125,2.5625 -11.336664,7.80803 -23.874139,13.09621 -37.1875,16.4375 -0.644531,0.16371 -1.289063,0.32742 -1.953125,0.49609 -18.133433,4.38829 -39.94735,5.11037 -57.603714,-1.44545 -7.235605,-2.63838 -13.638585,-3.69377 -21.310348,-3.84361 -1.102396,-0.0361 -2.204791,-0.0722 -3.340592,-0.10936 -3.555468,-0.11221 -7.111034,-0.19905 -10.667221,-0.28517 -2.455857,-0.0725 -4.911668,-0.14657 -7.367432,-0.22217 -6.106866,-0.18373 -12.214063,-0.34664 -18.321716,-0.50177 -5.167694,-0.1332 -10.334943,-0.28137 -15.502258,-0.4284 -8.644039,-0.24255 -17.288434,-0.46164 -25.933594,-0.66016 -2.70066,-6.30153 -3.15008,-11.86207 -3.13281,-18.67578 -9.6e-4,-0.84282 -0.002,-1.68564 -0.003,-2.554 -6.8e-4,-1.78612 0.001,-3.57224 0.005,-5.35835 0.005,-2.67707 8e-5,-5.35395 -0.006,-8.03101 -0.0153,-32.56313 -0.0153,-32.56313 7.08594,-46.05273 2.2157,-4.90914 3.56954,-10.159529 5.05078,-15.328128 -0.66,0 -1.32,0 -2,0 -1.38938,-1.961479 -2.72604,-3.961666 -4,-6 -1.05187,0.556875 -2.10375,1.11375 -3.1875,1.6875 -3.03161,1.309804 -3.44447,1.456514 -6.6875,0.1875 -2.125,-1.875 -2.125,-1.875 -3.125,-4.875 -0.068,-1.727954 -0.085,-3.458354 -0.0625,-5.1875 0.009,-0.901055 0.0181,-1.802109 0.0273,-2.730469 0.0116,-0.68707 0.0232,-1.37414 0.0352,-2.082031 -3.24127,1.337388 -4.54257,2.34182 -5.89453,5.578125 -0.31212,0.737021 -0.62423,1.474043 -0.9458,2.233398 -0.32082,0.804698 -0.64163,1.609395 -0.97217,2.438477 -0.34402,0.843369 -0.68804,1.686738 -1.04248,2.555664 -15.26034,38.231444 -33.19162,95.388054 -18.04346,136.159174 0.29649,0.67161 0.59297,1.34321 0.89844,2.03516 1.12715,-1.99929 1.12715,-1.99929 1.375,-4.4375 0.68996,-2.82882 1.20744,-3.95079 3.625,-5.5625 1.98047,0.13672 1.98047,0.13672 4,1 1.125,2.07422 1.125,2.07422 2,4.6875 1.55253,4.2941 3.29882,7.64662 6,11.3125 0.33,-1.65 0.66,-3.3 1,-5 -0.66,-0.33 -1.32,-0.66 -2,-1 0.99,-2.31 1.98,-4.62 3,-7 1.32,0 2.64,0 4,0 1.71094,1.86328 1.71094,1.86328 3.375,4.3125 2.91391,4.00269 4.99884,5.995 9.625,7.6875 -0.33,-1.32 -0.66,-2.64 -1,-4 1.9375,-1.1875 1.9375,-1.1875 5,-2 2.0616,0.69579 4.1216,1.39668 6.17358,2.12036 5.833683,1.81556 11.882587,2.74629 17.88892,3.81714 0.707947,0.12879 1.415894,0.25757 2.145294,0.39026 12.581259,2.28146 25.201315,3.99815 37.911591,5.37903 1.269001,0.14316 2.538003,0.28633 3.845459,0.43383 1.120115,0.11892 2.240229,0.23784 3.394287,0.36036 2.640869,0.49902 2.640869,0.49902 4.640869,2.49902 0.145454,6.01527 -1.60511,12.1691 -2.9375,18 -1.603057,7.22238 -2.732813,14.37337 -3.378662,21.74414 -0.481944,5.05397 -0.481944,5.05397 -2.683838,7.25586 -2.625,-0.375 -2.625,-0.375 -5,-1 -0.632976,-8.17593 0.468543,-15.83602 1.875,-23.875 0.173701,-0.99846 0.347402,-1.99692 0.526367,-3.02563 0.88519,-4.86569 1.966435,-9.41972 3.598633,-14.09937 -0.794546,-0.0388 -1.589092,-0.0777 -2.407715,-0.11768 -9.382509,-0.55458 -18.532751,-1.81797 -27.797363,-3.35644 -2.422516,-0.40131 -4.846776,-0.79041 -7.271484,-1.17822 -8.622258,-1.39979 -17.092512,-3.01995 -25.523438,-5.34766 -0.33,1.65 -0.66,3.3 -1,5 -8.07842,0.78178 -12.42952,-1.39106 -19,-6 -0.47437,0.96938 -0.94875,1.93875 -1.4375,2.9375 -1.5625,3.0625 -1.5625,3.0625 -2.5625,4.0625 -3.54132,0 -6.05579,-0.181 -8.79687,-2.55859 -4.20313,-4.81358 -4.20313,-4.81358 -4.20313,-7.44141 -0.66,0 -1.32,0 -2,0 -0.22687,0.63937 -0.45375,1.27875 -0.6875,1.9375 -1.3125,2.0625 -1.3125,2.0625 -3.625,3.125 -2.6875,-0.0625 -2.6875,-0.0625 -5.25,-1.9375 -11.3149,-14.50628 -10.94884,-35.48445 -9.75,-52.9375 0.0447,-0.67226 0.0895,-1.34451 0.13556,-2.03714 1.1773,-17.33927 4.00184,-34.32288 8.61298,-51.08347 0.60765,-2.22702 1.18465,-4.46104 1.76318,-6.6958 5.22572,-19.65627 11.7854,-41.956842 22.67578,-59.246088 2.14024,-3.461837 4.11254,-6.956828 6,-10.5625 4.69135,-8.643243 10.72725,-16.2153 17,-23.75 0.47655,-0.577339 0.9531,-1.154678 1.44409,-1.749512 1.18131,-1.394337 2.42619,-2.734332 3.68091,-4.062988 0.66,0 1.32,0 2,0 0,-0.66 0,-1.32 0,-2 0.66,0 1.32,0 2,0 0.278437,-0.86625 0.278437,-0.86625 0.5625,-1.75 2.460104,-3.850598 6.439581,-5.736249 10.761719,-6.847656 11.591392,-1.74294 24.57372,-0.951638 34.675781,5.410156 5.007674,3.702923 8.195003,7.577506 11,13.1875 4.62,-1.65 9.24,-3.3 14,-5 -1.98,-1.485 -1.98,-1.485 -4,-3 -0.5625,-3 -0.5625,-3 0,-6 4.929982,-3.971374 9.794503,-4.138112 15.9375,-4.125 1.80791,-0.0039 1.80791,-0.0039 3.6523437,-0.0078 2.9423822,0.114594 5.5550485,0.450187 8.4101563,1.132812 -0.99,-1.299375 -0.99,-1.299375 -2,-2.625 -2.1302092,-3.5947281 -2.4748222,-5.2915292 -2,-9.375 1,-1 1,-1 4.3125,-1.375 z M 6.6875,9.375 C 6.996875,10.24125 7.30625,11.1075 7.625,12 8.612419,15.136507 9.2233106,18.125674 9.6875,21.375 6.3089265,22.531836 4.5506745,22.189864 1.25,20.9375 -4.9287791,18.905614 -10.87306,19.102485 -17.3125,19.375 c 0.613594,0.460195 1.227188,0.920391 1.859375,1.394531 2.046875,1.535156 4.09375,3.070313 6.140625,4.605469 -0.495,2.475 -0.495,2.475 -1,5 -0.776016,0.08637 -1.552031,0.172734 -2.351563,0.261719 -8.806016,1.145412 -16.424779,3.507999 -24.648437,6.738281 1.32,0.99 2.64,1.98 4,3 -1.10319,3.309571 -2.623669,4.465289 -5.5,6.1875 -2.350595,1.555754 -3.334878,2.332377 -4.261719,5.027344 -0.279893,1.584351 -0.543427,3.171696 -0.789062,4.761718 C -44.3125,58.375 -44.3125,58.375 -46.1875,60.375 c -2.125,1 -2.125,1 -4.164062,1.296875 -2.139791,0.50798 -2.139791,0.50798 -2.867188,2.59375 -0.195937,0.778594 -0.391875,1.557187 -0.59375,2.359375 -1.177316,4.072354 -2.763187,6.483482 -5.5,9.75 -1.951138,4.820034 -2.551087,9.501978 -3.0625,14.625 -0.874179,8.409458 -0.874179,8.409458 -1.9375,12.375 -1.160156,-0.23396 -1.160156,-0.23396 -2.34375,-0.47266 -10.230719,-1.91193 -18.327477,-1.63595 -27.65625,3.47266 -6.3062,4.69172 -10.26518,10.31259 -12,18 -1.14598,9.70505 0.0563,17.80767 6.02344,25.66406 8.815348,10.19933 17.457272,15.39779 31.046873,16.41797 5.174383,-0.14488 10.008084,-1.56174 14.929687,-3.08203 -0.28875,-0.64066 -0.5775,-1.28133 -0.875,-1.94141 -2.273843,-5.29773 -3.626415,-9.29232 -3.125,-15.05859 -1.65,0 -3.3,0 -5,0 0.2475,-1.20656 0.2475,-1.20656 0.5,-2.4375 1.012115,-7.21132 1.258297,-13.04812 -2.5,-19.5625 -2.800414,-3.21023 -4.264999,-4.73687 -8.472656,-5.375 -4.442239,-0.10468 -7.623204,0.13507 -11.527344,2.375 0,0.66 0,1.32 0,2 -0.66,0 -1.32,0 -2,0 -0.99,1.98 -1.98,3.96 -3,6 -0.99,0 -1.98,0 -3,0 -1.141396,-3.42419 -0.949749,-3.84777 0.5625,-6.9375 2.625504,-4.95928 6.141385,-7.29713 11.4375,-9.0625 6.842896,-0.74142 12.348767,-0.0905 18,4 4.203746,3.90424 6.783763,8.21091 7.230469,13.97266 -0.01418,1.01964 -0.02836,2.03929 -0.04297,3.08984 -0.0064,1.02223 -0.01289,2.04445 -0.01953,3.09766 -0.144353,2.44057 -0.469047,4.50824 -1.167969,6.83984 0.99,0.33 1.98,0.66 3,1 0.957031,2.1875 0.957031,2.1875 1.8125,5 1.910067,5.68561 4.632627,10.20092 8.1875,15 1.086602,-3.25981 0.864815,-3.86212 0,-7 -0.777896,-8.3923 0.871074,-16.23709 4.300781,-23.91016 0.968437,-4.27951 -0.340188,-6.0171 -2.488281,-9.77734 -7.148988,-13.20108 -9.849881,-27.594954 -5.8125,-42.3125 4.071323,-10.481806 9.989822,-16.939737 20,-22 10.121549,-3.728992 21.5387187,-3.883062 32.0625,-2 9.988064,1.719884 14.588979,1.80147 23.179687,-4.121094 C 39.032664,46.00811 52.13495,42.478947 66.6875,44.375 c 6.580321,1.806363 11.858269,4.50548 17,9 0.33,0.66 0.66,1.32 1,2 0.66,0 1.32,0 2,0 0.41959,0.850781 0.41959,0.850781 0.847656,1.71875 0.753685,1.49204 1.531589,2.972152 2.335938,4.4375 4.464827,8.345472 6.862476,16.074694 6.902343,25.59375 -0.646901,12.99274 -0.646901,12.99274 5.101563,23.9375 0.80824,0.68965 1.61648,1.3793 2.44922,2.08984 5.6758,5.33807 8.36479,13.64321 9.36328,21.22266 0.66,0 1.32,0 2,0 1.2021,-3.76847 1.13291,-7.37926 1.125,-11.3125 0.003,-1.27488 0.005,-2.54977 0.008,-3.86328 -0.12892,-3.71225 -0.53648,-7.16581 -1.13281,-10.82422 1.98,0 3.96,0 6,0 0.12117,1.07121 0.24234,2.14242 0.36719,3.24609 0.16879,1.3972 0.33808,2.79433 0.50781,4.19141 0.0786,0.70705 0.15727,1.4141 0.23828,2.14258 0.226,1.81665 0.54973,3.62055 0.88672,5.41992 3.23389,1.61694 5.82022,0.19863 9.14453,-0.87109 10.87098,-4.29783 17.54871,-11.38165 23.73047,-21.06641 4.04654,-11.015594 3.89838,-21.132637 -0.77344,-31.871094 -3.16725,-6.300816 -7.79142,-10.52343 -14.41406,-12.878906 -9.33063,-2.786872 -16.22242,-2.69897 -25.06641,1.933594 -3.96761,2.235804 -3.96761,2.235804 -6.62109,5.753906 -2.5625,0.625 -2.5625,0.625 -5,1 -0.20625,-0.804375 -0.4125,-1.60875 -0.625,-2.4375 C 97.726895,46.522524 83.54375,36.08637 68.3125,28.5625 57.5,24.020621 47.343315,22.233774 35.6875,22.0625 24.943854,21.856789 24.943854,21.856789 20.875,18.125 19.806921,16.879764 18.744237,15.629876 17.6875,14.375 15.591378,12.778186 15.591378,12.778186 13.375,11.4375 12.739492,11.036602 12.103984,10.635703 11.449219,10.222656 9.562781,9.1582124 9.562781,9.1582124 6.6875,9.375 Z M -97.539062,30.890625 c -2.316747,2.786465 -4.559508,5.615622 -6.773438,8.484375 -0.67031,0.86625 -1.34063,1.7325 -2.03125,2.625 -3.97459,5.299454 -7.57585,10.790808 -11.03125,16.4375 -0.4067,0.655811 -0.8134,1.311621 -1.23242,1.987305 -0.96682,1.612771 -1.84477,3.278183 -2.70508,4.950195 0.33,0.66 0.66,1.32 1,2 2.97,-0.495 2.97,-0.495 6,-1 0.93424,3.010317 1.0445,3.866503 0,7 -0.0666,1.394397 -0.0854,2.791699 -0.0625,4.1875 0.0206,1.258125 0.0413,2.51625 0.0625,3.8125 1.37563,-1.289652 2.70766,-2.626893 4,-4 0,-0.66 0,-1.32 0,-2 2.97,-0.495 2.97,-0.495 6,-1 0.99,3.63 1.98,7.26 3,11 0.99,0 1.98,0 3,0 0.33,-0.66 0.66,-1.32 1,-2 0.9075,-0.37125 1.815,-0.7425 2.75,-1.125 4.298454,-2.479877 6.423752,-5.273803 8.25,-9.875 0.373792,-3.056576 0.318601,-5.941427 0,-9 -1.65,-0.33 -3.3,-0.66 -5,-1 0.66,-1.32 1.32,-2.64 2,-4 6.895568,-0.615676 10.557141,0.784341 16,5 1.024697,0.954201 2.045823,1.912258 3.0625,2.875 2.857832,2.533183 2.857832,2.533183 6.8125,1.9375 1.03125,-0.268125 2.0625,-0.53625 3.125,-0.8125 0.885567,-1.689737 0.885567,-1.689737 1,-4 -3.299138,-6.454836 -8.487164,-11.759936 -15.375,-14.191406 -2.308446,-0.645454 -4.630424,-1.24499 -6.964844,-1.789063 -1.316777,-0.504668 -1.316777,-0.504668 -2.660156,-1.019531 -0.878906,-2.113281 -0.878906,-2.113281 -1,-4 11.943465,-0.758315 19.089762,4.38789 28.058594,11.671875 2.447863,1.674594 4.037358,1.570129 6.941406,1.328125 1.305147,-2.217766 1.305147,-2.217766 2,-5 -2.151112,-5.838734 -7.988934,-10.36036 -13.324219,-13.265625 -6.343674,-2.737689 -12.854567,-3.843632 -19.675781,-4.734375 0,-1.32 0,-2.64 0,-4 12.45013,-0.782207 21.449634,2.64373 32,9 0.99,-0.66 1.98,-1.32 3,-2 -0.06698,-3.349157 -0.207564,-6.00024 -2.34375,-8.695313 -8.198685,-7.416083 -18.040659,-8.657133 -28.761719,-8.511718 -8.758968,0.626485 -14.573968,6.455377 -20.121093,12.722656 z M 21.972656,64.667969 C 17.213732,67.140799 13.745265,66.126054 8.625,65.125 6.7392843,64.810335 4.8525497,64.501715 2.9648438,64.199219 2.0558936,64.05146 1.1469434,63.903701 0.21044922,63.751465 -11.390367,62.020435 -23.497813,63.50111 -33.3125,70.375 c 0,0.66 0,1.32 0,2 -0.99,0.33 -1.98,0.66 -3,1 -5.920589,7.400736 -8.211036,16.602709 -8,26 1.373228,9.40831 4.207165,18.68709 9.3125,26.75 2.025793,3.90153 1.932853,5.09882 0.6875,9.25 -0.750247,2.30814 -1.516087,4.60958 -2.300781,6.90625 -2.898375,8.67893 -2.150671,16.72463 1.300781,25.09375 5.736429,10.79492 14.418817,17.24928 25.875,21.125 28.640992,8.31407 60.602644,4.41754 86.703369,-9.80908 13.267948,-7.64873 25.469571,-17.14238 30.007571,-32.26905 1.88503,-9.31845 0.0412,-18.19333 -4.94141,-26.23437 -1.98112,-2.71939 -4.026957,-5.2302 -6.47827,-7.5415 -3.769024,-3.68795 -5.625398,-6.26068 -5.744385,-11.62647 0.0792,-1.945472 0.189662,-3.889875 0.328125,-5.83203 0.07039,-2.049146 0.130359,-4.098677 0.179687,-6.148438 0.02417,-0.978076 0.04834,-1.956152 0.07324,-2.963867 -0.0102,-9.398472 -3.052916,-18.357978 -9.00293,-25.700195 -0.66,0 -1.32,0 -2,0 0,-0.66 0,-1.32 0,-2 -0.66,0 -1.32,0 -2,0 0,-0.66 0,-1.32 0,-2 -1.458042,-0.813023 -2.916443,-1.625401 -4.375,-2.4375 -0.812109,-0.452461 -1.624219,-0.904922 -2.460938,-1.371094 -15.305843,-8.426502 -36.92896,2.008587 -48.878906,12.101563 z M -80.3125,66.375 c -0.02578,0.640664 -0.05156,1.281328 -0.07813,1.941406 -0.384424,5.862461 -1.067616,10.481661 -4.921875,15.058594 -1.336087,1.125976 -2.691743,2.228998 -4.0625,3.3125 -4.64626,3.789687 -5.826101,7.933695 -6.9375,13.6875 0.886875,-0.474375 1.77375,-0.94875 2.6875,-1.4375 5.532271,-2.609562 10.580135,-2.695226 16.625,-2.625 0.740566,0.0045 1.481133,0.009 2.244141,0.01367 1.814488,0.01171 3.628934,0.02964 5.443359,0.04883 0.04898,-0.678047 0.09797,-1.356094 0.148438,-2.054688 0.517204,-6.438305 1.443373,-12.642642 2.851562,-18.945312 -0.886875,-0.391875 -1.77375,-0.78375 -2.6875,-1.1875 -3.441832,-1.883267 -5.594208,-4.02074 -8.3125,-6.8125 -0.99,-0.33 -1.98,-0.66 -3,-1 z m -27,87 c -0.0273,2.9584 -0.047,5.91653 -0.0625,8.875 -0.008,0.82242 -0.0168,1.64484 -0.0254,2.49219 -0.003,0.825 -0.006,1.65 -0.01,2.5 -0.005,0.74363 -0.0105,1.48725 -0.0159,2.25342 0.17002,4.31226 0.65333,8.58965 1.11353,12.87939 0.84326,0.0155 0.84326,0.0155 1.70355,0.0312 5.906042,0.10906 11.811959,0.22356 17.717837,0.34108 2.197564,0.043 4.395156,0.0847 6.592773,0.125 3.177653,0.0585 6.355176,0.12194 9.532715,0.18628 0.966132,0.0167 1.932264,0.0334 2.927673,0.0506 5.991043,0.12711 11.922367,0.49721 17.889588,1.0486 3.479695,0.28668 6.894607,0.31457 10.385864,0.27966 1.191094,-0.009 2.382188,-0.018 3.609375,-0.0273 1.307109,-0.0174 1.307109,-0.0174 2.640625,-0.0352 -1.185293,-0.93586 -1.185293,-0.93586 -2.394531,-1.89063 C -38.3125,180.375 -38.3125,180.375 -40,178.625 c -1.251796,-1.47989 -1.251796,-1.47989 -3.3125,-1.25 0,-0.66 0,-1.32 0,-2 -1.650028,-1.35387 -3.317439,-2.68678 -5,-4 -0.495,-0.99 -0.495,-0.99 -1,-2 -1.631953,0.34225 -1.631953,0.34225 -3.296875,0.69141 -17.146079,3.42804 -30.350662,2.03645 -45.246094,-7.8086 -3.404451,-2.60881 -5.834741,-5.50144 -8.457031,-8.88281 -0.33,0 -0.66,0 -1,0 z"
         fill="#393939"
         transform="translate(233.3125,171.625)"
         id="path1-1"
         style="fill:#f9a03f;fill-opacity:1" /><path
         d="m 0,0 c 29.487237,0.36752116 29.487237,0.36752116 40,5 0.930703,0.3725391 1.861406,0.7450781 2.820312,1.1289062 C 57.694139,12.405744 71.028763,22.437739 80,36 c 0.714844,2.292969 0.714844,2.292969 1,4 0.819844,-0.421523 1.639687,-0.843047 2.484375,-1.277344 1.077656,-0.547851 2.155312,-1.095703 3.265625,-1.660156 1.067344,-0.545273 2.134687,-1.090547 3.234375,-1.652344 7.561005,-3.535651 16.859155,-3.614938 24.941405,-1.726562 6.42935,2.409754 13.31466,5.943908 16.57422,12.191406 0.165,0.70125 0.33,1.4025 0.5,2.125 0.66,0 1.32,0 2,0 2.6822,5.364396 3.31526,9.01007 3,15 -0.66,0 -1.32,0 -2,0 -0.33,0.66 -0.66,1.32 -1,2 -0.33,-0.99 -0.66,-1.98 -1,-3 -0.66,0 -1.32,0 -2,0 -0.25395,-0.68707 -0.50789,-1.374141 -0.76953,-2.082031 -0.34418,-0.901055 -0.68836,-1.80211 -1.04297,-2.730469 -0.33645,-0.89332 -0.67289,-1.786641 -1.01953,-2.707031 C 127.02858,52.060699 125.90308,50.81583 124,49 c 0,-0.66 0,-1.32 0,-2 -0.55688,-0.268125 -1.11375,-0.53625 -1.6875,-0.8125 C 120,45 120,45 117.8125,43.5 111.56673,40.168921 104.9014,39.201297 98,41 c -3.406187,1.180056 -6.71405,2.519087 -10,4 -0.737344,0.310664 -1.474688,0.621328 -2.234375,0.941406 C 83.656474,46.945514 83.656474,46.945514 83,50 81.35,50 79.7,50 78,50 77.610703,49.18918 77.221406,48.378359 76.820312,47.542969 69.787173,33.622538 60.482468,24.611816 47,17 46.129883,16.507578 45.259766,16.015156 44.363281,15.507813 30.19949,8.3480939 13.62462,6.264311 -2,5 -1.34,3.35 -0.68,1.7 0,0 Z"
         fill="#383838"
         transform="translate(260,187)"
         id="path2"
         style="fill:#f9a03f;fill-opacity:1" /><path
         d="M 0,0 C 1.32,0.33 2.64,0.66 4,1 4,1.66 4,2.32 4,3 8.455,2.505 8.455,2.505 13,2 12.25,9.625 12.25,9.625 10,13 9.01,13 8.02,13 7,13 7,14.98 7,16.96 7,19 6.67,19 6.34,19 6,19 6,15.7 6,12.4 6,9 1.8375705,10.95889 1.8375705,10.95889 0.10546875,14.578125 -0.20664551,15.315146 -0.51875977,16.052168 -0.84033203,16.811523 -1.3215552,18.018569 -1.3215552,18.018569 -1.8125,19.25 -2.1565186,20.093369 -2.5005371,20.936738 -2.8549805,21.805664 -19.321725,63.059511 -25.030727,104.97686 -26,149 c -1.65,-0.33 -3.3,-0.66 -5,-1 -0.999175,-5.02504 -1.190901,-9.86392 -1.238281,-14.96484 -0.0097,-0.86204 -0.01941,-1.72407 -0.0294,-2.61223 -0.02492,-2.78686 -0.03753,-5.57347 -0.04481,-8.36043 -0.0026,-0.94768 -0.0052,-1.89536 -0.0079,-2.87177 C -32.324721,104.74476 -31.481496,91.072829 -28,77 c 0.316965,-1.395412 0.632149,-2.79123 0.945313,-4.1875 0.755921,-3.269512 1.600474,-6.509727 2.490722,-9.745605 0.607658,-2.227027 1.184651,-4.461042 1.763184,-6.695801 C -17.861248,37.791299 -11.060315,19.451586 -3,2 -2.01,2 -1.02,2 0,2 0,1.34 0,0.68 0,0 Z"
         fill="#383838"
         transform="translate(106,237)"
         id="path3"
         style="fill:#f9a03f;fill-opacity:1" /><path
         d="M 0,0 C 2.5882755,-0.47059555 4.3626056,-0.38152826 6.6445312,0.984375 13.196025,6.2492319 19.085482,14.113657 22,22 c 0.218501,2.72133 0.141637,5.261688 0,8 -2.31,0.33 -4.62,0.66 -7,1 0.66,1.98 1.32,3.96 2,6 1.65,0 3.3,0 5,0 0.66,1.32 1.32,2.64 2,4 0.66,0 1.32,0 2,0 2.780319,2.982209 5.257791,6.208225 7.765625,9.421387 1.201707,1.536834 2.42095,3.059906 3.640625,4.582519 0.732188,0.947461 1.464375,1.894922 2.21875,2.871094 0.672891,0.863672 1.345781,1.727344 2.039062,2.617187 C 43,63 43,63 42.710937,65.820312 42.476328,66.539609 42.241719,67.258906 42,68 39.171446,68.22511 37.483017,68.286022 35.007812,66.820312 29.763416,62.09818 25.815723,56.926294 22,51 c 0,4.123355 0.476201,8.18353 0.878906,12.285156 C 23,66 23,66 22,68 20.35,67.67 18.7,67.34 17,67 15.367382,62.397026 14.231181,57.762099 13.1875,53 10.162542,39.640431 10.162542,39.640431 4.3476562,27.359375 3,25 3,25 3,21 7.2101587,20.043146 9.2571237,19.868188 13,22 12.566875,21.373516 12.13375,20.747031 11.6875,20.101562 11.130625,19.284297 10.57375,18.467031 10,17.625 9.443125,16.812891 8.88625,16.000781 8.3125,15.164063 7,13 7,13 7,11 6.34,11 5.68,11 5,11 5,10.34 5,9.68 5,9 4.34,9 3.68,9 3,9 3,8.34 3,7.68 3,7 1.68,6.34 0.36,5.68 -1,5 -0.67,3.35 -0.34,1.7 0,0 Z"
         fill="#373737"
         transform="translate(327,391)"
         id="path4"
         style="fill:#f9a03f;fill-opacity:1" /><path
         d="m 0,0 c 2.878944,2.1327471 5.6537988,4.282342 7.9375,7.0625 0,0.66 0,1.32 0,2 -1.65,0.33 -3.3,0.66 -5,1 -0.495,1.485 -0.495,1.485 -1,3 C 1.380625,12.299375 0.82375,11.53625 0.25,10.75 -5.439018,4.1384386 -13.881201,2.5363993 -22.265625,1.7695312 -30.791316,1.5446073 -36.828335,3.3864111 -43.183594,9.1445313 -54.424098,20.618725 -63.0175,34.263091 -71.0625,48.0625 c 0.99,0 1.98,0 3,0 1.339815,0.306243 2.675119,0.634516 4,1 0.934236,3.010317 1.044499,3.866503 0,7 -0.04166,2.332961 -0.04166,4.667039 0,7 0,0.99 0,1.98 0,3 -0.66,0 -1.32,0 -2,0 -0.02725,-1.729077 -0.04651,-3.458282 -0.0625,-5.1875 -0.0174,-1.444395 -0.0174,-1.444395 -0.03516,-2.917969 0.09279,-2.750296 0.476539,-5.219327 1.097656,-7.894531 -4.455,0.495 -4.455,0.495 -9,1 0,-0.66 0,-1.32 0,-2 -1.32,-0.33 -2.64,-0.66 -4,-1 0,0.66 0,1.32 0,2 -0.66,0 -1.32,0 -2,0 1.906653,-6.451807 5.323432,-11.70689 8.920898,-17.313965 0.9991,-1.561036 1.981269,-3.132872 2.961915,-4.705566 3.787948,-5.919661 7.950841,-11.379137 12.492187,-16.730469 0.524326,-0.621248 1.048652,-1.242495 1.588867,-1.8825684 1.298504,-1.497769 2.662199,-2.9385402 4.036133,-4.3674316 0.66,0 1.32,0 2,0 0,-0.66 0,-1.32 0,-2 0.66,0 1.32,0 2,0 0.278438,-0.86625 0.278438,-0.86625 0.5625,-1.75 2.460104,-3.8505981 6.439581,-5.7362494 10.761719,-6.8476562 C -23.098143,-7.2854252 -10.077988,-6.5045836 0,0 Z"
         fill="#424242"
         transform="translate(184.0625,188.9375)"
         id="path5"
         style="fill:#f9a03f;fill-opacity:1" /><path
         d="m 0,0 c 0.33,0 0.66,0 1,0 0.037584,1.3160522 0.037584,1.3160522 0.075928,2.6586914 0.095526,3.2764805 0.1947347,6.5528076 0.2963867,9.8291016 0.043128,1.414019 0.084817,2.828082 0.125,4.242187 0.058243,2.040664 0.121777,4.081108 0.1862793,6.121582 0.036658,1.225416 0.073315,2.450831 0.111084,3.713379 C 1.9867211,29.777843 2.4055394,32.839416 3,36 c 0.99,0 1.98,0 3,0 0.33,-3.3 0.66,-6.6 1,-10 0.33,0 0.66,0 1,0 0.1933594,1.16918 0.3867188,2.338359 0.5859375,3.542969 C 8.8486669,31.091195 9.1117039,32.63937 9.375,34.1875 9.5013281,34.956426 9.6276562,35.725352 9.7578125,36.517578 10.454644,40.576619 11.262113,44.22954 13,48 14.12715,46.000708 14.12715,46.000708 14.375,43.5625 15.064955,40.733684 15.582439,39.611707 18,38 c 1.980469,0.136719 1.980469,0.136719 4,1 1.125,2.074219 1.125,2.074219 2,4.6875 1.55253,4.294102 3.298823,7.646617 6,11.3125 0.33,-1.65 0.66,-3.3 1,-5 -0.66,-0.33 -1.32,-0.66 -2,-1 0.99,-2.31 1.98,-4.62 3,-7 1.32,0 2.64,0 4,0 1.75,2 1.75,2 3,4 -0.495,0.99 -0.495,0.99 -1,2 -1.666667,0 -3.333333,0 -5,0 0,2.97 0,5.94 0,9 0.99,-0.99 1.98,-1.98 3,-3 3.875,1.75 3.875,1.75 5,4 -0.99,-0.33 -1.98,-0.66 -3,-1 -0.474375,0.969375 -0.94875,1.93875 -1.4375,2.9375 C 35,63 35,63 34,64 30.458684,64 27.944208,63.818998 25.203125,61.441406 21,56.627827 21,56.627827 21,54 c -0.66,0 -1.32,0 -2,0 -0.226875,0.639375 -0.45375,1.27875 -0.6875,1.9375 C 17,58 17,58 14.6875,59.0625 12,59 12,59 9.4375,57.125 -2.8951163,41.313954 -1.2828113,18.867194 0,0 Z"
         fill="#494949"
         transform="translate(73,349)"
         id="path6"
         style="fill:#f9a03f;fill-opacity:1" /><path
         d="M 0,0 C 2.0625,0.4375 2.0625,0.4375 4,1 4.7421875,2.59375 4.7421875,2.59375 5,5 3.7918068,7.3113261 2.5787894,9.3557822 1.125,11.5 -2.2457729,16.390345 -2.2457729,16.390345 -4,22 -2.9171875,21.226562 -2.9171875,21.226562 -1.8125,20.4375 1.4195366,18.78557 2.6160831,18.936483 6,20 5.6131054,23.327293 5.1382254,26.486801 4.265625,29.726562 2.0115347,38.126239 1.7743845,45.804166 1.9921875,54.421875 1.9947656,55.602656 1.9973437,56.783437 2,58 1,59 1,59 -1.5625,59.0625 -2.366875,59.041875 -3.17125,59.02125 -4,59 -6.0993189,54.718056 -6.302489,50.805267 -6.25,46.125 -6.2577344,45.443086 -6.2654687,44.761172 -6.2734375,44.058594 -6.2555374,39.359823 -5.4683245,35.46324 -4,31 -5.11375,31.061875 -6.2275,31.12375 -7.375,31.1875 -8.57125,31.125625 -9.7675,31.06375 -11,31 -13,28 -13,28 -12.863281,25.800781 -10.584731,15.506905 -7.6441198,7.6441198 0,0 Z"
         fill="#3b3b3b"
         transform="translate(217,391)"
         id="path7"
         style="fill:#f9a03f;fill-opacity:1" /><path
         d="M 0,0 C 0.66,0.33 1.32,0.66 2,1 2.3905902,7.017982 1.8097724,12.525545 0.625,18.4375 -3.3469608,38.45233 -3.5522955,58.665843 -4,79 c -1.65,-0.33 -3.3,-0.66 -5,-1 -0.9991736,-5.025034 -1.190935,-9.863922 -1.238281,-14.964844 -0.0097,-0.862534 -0.01932,-1.725068 -0.02927,-2.613739 -0.0248,-2.786349 -0.03739,-5.572469 -0.04495,-8.358917 -0.003,-0.944027 -0.0059,-1.888054 -0.0089,-2.860687 C -10.348178,11.717364 -10.348178,11.717364 -3,2 -2.01,1.34 -1.02,0.68 0,0 Z"
         fill="#2e2e2e"
         transform="translate(84,307)"
         id="path8"
         style="fill:#f9a03f;fill-opacity:1" /><path
         d="m 0,0 c 1.6075675,1.119556 3.1156963,2.1781963 4.5,3.5625 0.040638,1.6661711 0.042721,3.3338809 0,5 -4,0 -4,0 -7.25,-2.0625 -3.4650776,-2.0775626 -5.8735208,-2.3765008 -9.824219,-1.609375 -4.475766,1.5615251 -7.19248,4.2371557 -9.363281,8.484375 -1.118066,6.335706 -0.0424,11.719086 3.4375,17.1875 2.551399,2.343257 2.551399,2.343257 5,4 -0.66,1.32 -1.32,2.64 -2,4 -4.762143,-0.420189 -7.846985,-2.538932 -11,-6 -3.88083,-6.209327 -3.770931,-12.840088 -3,-20 1.556463,-6.0300688 5.040881,-9.3164128 10,-12.87109375 C -13.329506,-3.7915482 -5.9568919,-3.7177005 0,0 Z"
         fill="#424242"
         transform="translate(372.5,240.4375)"
         id="path9"
         style="fill:#f9a03f;fill-opacity:1" /><path
         d="m 0,0 c 9.6932099,0.15606241 19.5736,6.1267296 26.6875,12.375 0,0.66 0,1.32 0,2 1.177559,-0.0174 1.177559,-0.0174 2.378906,-0.03516 5.658292,-0.0486 11.049883,0.02221 16.621094,1.035156 0,0.33 0,0.66 0,1 -6.416887,0.103498 -12.626944,-0.254925 -19,-1 0,1.32 0,2.64 0,4 5.28,0.66 10.56,1.32 16,2 0,0.33 0,0.66 0,1 C 27.724076,23.446245 27.724076,23.446245 23.058594,20.992187 21.125,19.1875 21.125,19.1875 19.390625,17.261719 16.001447,13.507194 11.452027,10.963176 6.6875,9.375 c 0.3003516,0.5194922 0.6007031,1.038984 0.9101562,1.574219 3.1447328,5.767119 3.1447328,5.767119 2.8398438,9.425781 -0.2475,0.66 -0.495,1.32 -0.75,2 -3.5466718,1.251279 -5.7225344,0.722851 -9.25,-0.4375 C -0.45453125,21.650039 -1.3465625,21.362578 -2.265625,21.066406 -2.9410937,20.838242 -3.6165625,20.610078 -4.3125,20.375 c 1.32,-0.99 2.64,-1.98 4,-3 -0.33,-0.33 -0.66,-0.66 -1,-1 -0.33,-0.66 -0.66,-1.32 -1,-2 -0.66,-0.33 -1.32,-0.66 -2,-1 1.32,0 2.64,0 4,0 -0.66,-0.86625 -1.32,-1.7325 -2,-2.625 -2.1302092,-3.5947281 -2.4748222,-5.2915292 -2,-9.375 1,-1 1,-1 4.3125,-1.375 z"
         fill="#4b4b4b"
         transform="translate(233.3125,171.625)"
         id="path10"
         style="fill:#f9a03f;fill-opacity:1" /><path
         d="m 0,0 c 4.7492671,3.4855137 8.0312873,7.713287 9.8203125,13.335938 0.2304685,3.042968 0.2304685,3.042968 0.1875005,6.187499 -0.0064,1.04543 -0.012891,2.09086 -0.019532,3.167969 -0.1679688,2.644531 -0.1679688,2.644531 -1.1679688,4.644531 -0.66,0 -1.32,0 -2,0 0,0.99 0,1.98 0,3 -1.32,0 -2.64,0 -4,0 C 2.7642383,28.941816 2.7642383,28.941816 2.7070313,27.519531 2.2089447,16.333345 2.2089447,16.333345 -3.2421875,6.8984375 -8.53238,4.0845053 -14.520825,4.7284547 -20.179687,6.3359375 c 0,0.66 0,1.32 0,2 -0.66,0 -1.32,0 -2,0 -0.2475,0.969375 -0.495,1.9387505 -0.75,2.9375005 -0.412501,1.010624 -0.825,2.02125 -1.25,3.0625 -2.125,0.875 -2.125,0.875 -4,1 -1.097657,-1.75 -1.097657,-1.75 -2,-4 1.315411,-5.2208598 4.500456,-9.1466313 9,-12.0000005 C -14.614312,-4.4157056 -6.4105905,-3.6594869 0,0 Z"
         fill="#383838"
         transform="translate(168.17969,286.66406)"
         id="path11"
         style="fill:#f9a03f;fill-opacity:1" /><path
         d="m 0,0 c 11.109563,-1.5414519 20.324953,0.58554472 29.5,6.9375 2.965782,2.3499042 4.608379,4.273112 5.5,8.0625 0.66,0 1.32,0 2,0 2.682198,5.364396 3.31526,9.01007 3,15 -0.66,0 -1.32,0 -2,0 -0.33,0.66 -0.66,1.32 -1,2 -0.495,-1.485 -0.495,-1.485 -1,-3 -0.66,0 -1.32,0 -2,0 C 33.619082,27.969395 33.619082,27.969395 33.230469,26.917969 32.886289,26.016914 32.542109,25.115859 32.1875,24.1875 31.851055,23.29418 31.514609,22.400859 31.167969,21.480469 30.028581,19.060699 28.903077,17.81583 27,16 27,15.34 27,14.68 27,14 26.443125,13.731875 25.88625,13.46375 25.3125,13.1875 23,12 23,12 20.5625,10.4375 17.979382,8.9884338 15.91241,8.4160586 13,8 13,7.34 13,6.68 13,6 11.104247,5.9727882 9.2083802,5.9535086 7.3125,5.9375 6.2567578,5.9258984 5.2010156,5.9142969 4.1132812,5.9023437 1.2758974,5.9913457 -1.2438919,6.3506016 -4,7 -4,5 -4,5 -2,3 -1.34,2.01 -0.68,1.02 0,0 Z"
         fill="#2f2f2f"
         transform="translate(357,220)"
         id="path12"
         style="fill:#f9a03f;fill-opacity:1" /><path
         d="m 0,0 c 0,0.66 0,1.32 0,2 -0.66,0 -1.32,0 -2,0 -1.1983821,2.3285446 -1.1983821,2.3285446 -2,5 0.66,0.99 1.32,1.98 2,3 -13.561683,8.213671 -30.593003,17.82035 -47,17 2.619412,-1.746275 4.038249,-2.387224 7,-3 -0.33,-0.66 -0.66,-1.32 -1,-2 -2.321566,-0.407292 -4.656879,-0.744387 -7,-1 0,-0.33 0,-0.66 0,-1 1.523672,-0.363516 1.523672,-0.363516 3.078125,-0.734375 C -33.878295,16.113387 -11.050037,0 0,0 Z"
         fill="#454545"
         transform="translate(323,342)"
         id="path13"
         style="fill:#f9a03f;fill-opacity:1" /><path
         d="M 0,0 C 3.2805248,2.7099988 5.7773174,4.9045933 6.2382812,9.2421875 6.4375239,16.310058 6.4375239,16.310058 4.375,19.5625 1.428724,21.345772 -0.54821594,21.929555 -4,22 -7.3778661,20.664565 -8.7646102,19.329546 -10.875,16.375 -12.349754,11.950737 -12.232764,8.4804589 -11,4 -8.1300704,-0.52565827 -5.1429308,-0.81204171 0,0 Z"
         fill="#232323"
         transform="translate(227,276)"
         id="path14"
         style="fill:#f9a03f;fill-opacity:1" /><path
         d="m 0,0 c 4.3129092,0.8471786 5.7702136,2.3154109 8.5,5.6875 1.734229,3.4684578 1.4650296,7.207717 1,11 C 7.5817031,20.228971 6.3921074,21.357808 2.625,22.75 -1.5389343,22.666721 -3.3457073,21.339973 -6.5,18.6875 -8.8277081,15.724962 -8.9866584,12.453161 -8.875,8.7265625 -7.9450015,3.6696954 -5.0593575,0.99380237 0,0 Z"
         fill="#2c2c2c"
         transform="translate(295.5,262.3125)"
         id="path15"
         style="fill:#f9a03f;fill-opacity:1" /><path
         d="M 0,0 C 3.1668917,1.642092 5.2697881,3.0475497 7.4375,5.875 8.2613875,8.9874639 7.9424904,10.921198 7,14 c -2.5,2.8125 -2.5,2.8125 -5,5 -0.33,0.33 -0.66,0.66 -1,1 -1.78837622,0.125245 -3.5822821,0.175737 -5.375,0.1875 -0.9771094,0.01418 -1.9542187,0.02836 -2.9609375,0.04297 C -10,20 -10,20 -13,18 c 0.33,-1.65 0.66,-3.3 1,-5 0.922324,0.03481 0.922324,0.03481 1.863281,0.07031 1.2123635,0.02707 1.2123635,0.02707 2.449219,0.05469 1.2007617,0.03481 1.2007617,0.03481 2.4257813,0.07031 C -2.7161142,13.158173 -2.7161142,13.158173 0,11 -0.33,10.01 -0.66,9.02 -1,8 -4.3324787,7.6658207 -4.3324787,7.6658207 -8,8 c -1.3719557,1.2935583 -2.711827,2.622987 -4,4 -2.25,-0.25 -2.25,-0.25 -4,-1 0.319685,-3.5165386 0.622421,-5.5343197 2.875,-8.3125 C -9.2033915,-0.42671851 -4.8361371,-0.66736864 0,0 Z"
         fill="#545454"
         transform="translate(275,327)"
         id="path16"
         style="fill:#f9a03f;fill-opacity:1" /><path
         d="M 0,0 C 4.5621389,8.5159926 3.4540344,16.948939 0.96875,26.015625 -1.9250024,34.930249 -6.4917503,41.314106 -13,48 c -0.99,-1.32 -1.98,-2.64 -3,-4 0.66,-0.99 1.32,-1.98 2,-3 -0.33,-0.66 -0.66,-1.32 -1,-2 1.019178,-1.645673 2.118594,-3.241869 3.25,-4.8125 C -5.866803,25.215918 -4.3544615,15.591613 -5,5 -4.34,5.66 -3.68,6.32 -3,7 -2.01,6.67 -1.02,6.34 0,6 0,4.02 0,2.04 0,0 Z m -12,37 c 0,0.99 0,1.98 0,3 0.66,-0.99 1.32,-1.98 2,-3 -0.66,0 -1.32,0 -2,0 z"
         fill="#424242"
         transform="translate(397,244)"
         id="path17"
         style="fill:#f9a03f;fill-opacity:1" /><path
         d="M 0,0 C 2.0625,0.4375 2.0625,0.4375 4,1 4.7421875,2.59375 4.7421875,2.59375 5,5 3.7918068,7.3113261 2.5787894,9.3557822 1.125,11.5 -2.2457729,16.390345 -2.2457729,16.390345 -4,22 c 1.32,-0.33 2.64,-0.66 4,-1 -0.66,0.99 -1.32,1.98 -2,3 -0.99,0 -1.98,0 -3,0 0,1.65 0,3.3 0,5 0.66,0 1.32,0 2,0 -0.33,1.32 -0.66,2.64 -1,4 0,-0.66 0,-1.32 0,-2 -1.11375,0.06188 -2.2275,0.12375 -3.375,0.1875 C -8.57125,31.125625 -9.7675,31.06375 -11,31 -13,28 -13,28 -12.863281,25.800781 -10.584731,15.506905 -7.6441198,7.6441198 0,0 Z"
         fill="#454545"
         transform="translate(217,391)"
         id="path18"
         style="fill:#f9a03f;fill-opacity:1" /><path
         d="m 0,0 c 0,1.65 0,3.3 0,5 -0.66,0 -1.32,0 -2,0 0,0.66 0,1.32 0,2 -9.151793,2.1798561 -17.860206,2.5280282 -27,0 -0.33,-1.32 -0.66,-2.64 -1,-4 3.669872,-1.2232907 6.339678,-0.8802101 10.1875,-0.5625 1.908457,0.1527539 1.908457,0.1527539 3.855469,0.3085938 C -14.493301,2.8717773 -14.493301,2.8717773 -13,3 c 0,-0.66 0,-1.32 0,-2 4.3943621,-0.85743651 8.5257208,-1.08948558 13,-1 z"
         fill="#343434"
         transform="translate(180,336)"
         id="path19"
         style="fill:#f9a03f;fill-opacity:1" /><path
         d="M 0,0 C 3.875,0.875 3.875,0.875 5,2 5.2968488,3.3696191 5.5624235,4.7460738 5.8125,6.125 7.3139639,13.06927 10.023278,17.849499 16,22 15.34,23.32 14.68,24.64 14,26 9.2378571,25.579811 6.1530147,23.461068 3,20 -0.93973603,13.696422 -0.29446251,7.2525027 0,0 Z"
         fill="#232323"
         transform="translate(343,253)"
         id="path20"
         style="fill:#f9a03f;fill-opacity:1" /><path
         d="m 0,0 c 2.7776528,2.4508701 2.8838503,4.257755 3.125,7.875 -2.875,0.625 -2.875,0.625 -6,1 -0.66,-0.66 -1.32,-1.32 -2,-2 -3.0834783,-0.1668111 -3.0834783,-0.1668111 -6,0 -0.268125,0.639375 -0.53625,1.27875 -0.8125,1.9375 -1.1875,2.0625 -1.1875,2.0625 -4.1875,3.0625 -3,-2 -3,-2 -3.5625,-4.3125 0.84938,-4.0581476 3.2674,-5.3615467 6.5625,-7.6875 C -8.3226134,-1.6424622 -4.4983534,-1.7602253 0,0 Z"
         fill="#575757"
         transform="translate(271.875,292.125)"
         id="path21"
         style="fill:#f9a03f;fill-opacity:1" /><path
         d="M 0,0 C 0,0.33 0,0.66 0,1 -1.134375,1.28875 -2.26875,1.5775 -3.4375,1.875 -4.613125,2.24625 -5.78875,2.6175 -7,3 c -0.33,0.66 -0.66,1.32 -1,2 2.31,0.33 4.62,0.66 7,1 0,0.33 0,0.66 0,1 C -1.9049219,7.090879 -1.9049219,7.090879 -2.828125,7.1835937 -4.0269531,7.3092773 -4.0269531,7.3092773 -5.25,7.4375 -6.0389062,7.5187109 -6.8278125,7.5999219 -7.640625,7.6835937 -9.8236464,7.9763499 -11.877318,8.4206442 -14,9 c 0,0.66 0,1.32 0,2 -0.66,0 -1.32,0 -2,0 -0.2475,0.969375 -0.495,1.93875 -0.75,2.9375 -0.4125,1.010625 -0.825,2.02125 -1.25,3.0625 -2.125,0.875 -2.125,0.875 -4,1 -1.097656,-1.75 -1.097656,-1.75 -2,-4 1.315412,-5.2208593 4.500456,-9.1466308 9,-12 4.730664,-2.70323643 9.7146513,-2.18473064 15,-2 z"
         fill="#575757"
         transform="translate(162,284)"
         id="path22"
         style="fill:#f9a03f;fill-opacity:1" /><path
         d="M 0,0 C 0.99,0 1.98,0 3,0 3.7618214,7.9229422 3.7618214,7.9229422 1.1875,11.5625 -3.4569967,13.657077 -7.9768515,13.668716 -13,13 c -0.99,-0.66 -1.98,-1.32 -3,-2 0.33,-1.65 0.66,-3.3 1,-5 3.96,0 7.92,0 12,0 0.99,-1.98 1.98,-3.96 3,-6 z"
         fill="#353535"
         transform="translate(278,334)"
         id="path23"
         style="fill:#f9a03f;fill-opacity:1" /><path
         d="M 0,0 C 0.33,0 0.66,0 1,0 1,1.65 1,3.3 1,5 2.32,5 3.64,5 5,5 5.33,4.01 5.66,3.02 6,2 6,2.66 6,3.32 6,4 6.639375,4.103125 7.27875,4.20625 7.9375,4.3125 8.618125,4.539375 9.29875,4.76625 10,5 11.383249,9.1497472 11.774528,13.141134 10.0625,17.25 9.711875,17.8275 9.36125,18.405 9,19 8.67,19.99 8.34,20.98 8,22 3.4077449,12.774487 3.4077449,12.774487 4,7 2.68,6.67 1.36,6.34 0,6 -1.125,2.25 -1.125,2.25 0,0 Z"
         fill="#5e5e5e"
         transform="translate(170,312)"
         id="path24"
         style="fill:#f9a03f;fill-opacity:1" /><path
         d="m 0,0 c 1.2065625,0.0309375 1.2065625,0.0309375 2.4375,0.0625 0,1.32 0,2.64 0,4 -1.6396721,1.3663934 -3.31110128,2.6949419 -5,4 -1.3935576,1.958513 -2.7428255,3.951271 -4,6 -0.99,-0.66 -1.98,-1.32 -3,-2 0.3742632,-5.3644391 1.9959543,-7.49646 6,-11 1,-1 1,-1 3.5625,-1.0625 z"
         fill="#5f5f5f"
         transform="translate(208.5625,245.9375)"
         id="path25"
         style="fill:#f9a03f;fill-opacity:1" /><path
         d="M 0,0 C 0.66,1.32 1.32,2.64 2,4 1.01,4.33 0.02,4.66 -1,5 -1.495,5.825 -1.99,6.65 -2.5,7.5 -4,10 -4,10 -7,11 -7.99,10.34 -8.98,9.68 -10,9 -10.4375,6.625 -10.4375,6.625 -10,4 -7.1162522,-0.103795 -4.8705629,-0.44277845 0,0 Z"
         fill="#363636"
         transform="translate(263,293)"
         id="path26"
         style="fill:#f9a03f;fill-opacity:1" /><path
         d="m 0,0 c 5.1946312,-0.31167787 8.6719506,-0.01956938 13,3 1.375,3.1875 1.375,3.1875 2,6 C 10.431471,9 10.405258,8.5539438 7,6 4.366964,4.8758962 1.7050216,3.9467576 -1,3 -0.67,2.01 -0.34,1.02 0,0 Z"
         fill="#777777"
         transform="translate(292,230)"
         id="path27"
         style="fill:#f9a03f;fill-opacity:1" /><path
         d="M 0,0 C 0.391875,0.556875 0.78375,1.11375 1.1875,1.6875 3.018831,4.1479504 3.018831,4.1479504 5.6875,6.5 8,9 8,9 8,13 5.9375,13.875 5.9375,13.875 3,14 0.40994275,12.260809 -1.7912488,10.196021 -4,8 -3.67,7.34 -3.34,6.68 -3,6 -1.68,6.66 -0.36,7.32 1,8 0.67,5.36 0.34,2.72 0,0 Z"
         fill="#575757"
         transform="translate(350,265)"
         id="path28"
         style="fill:#f9a03f;fill-opacity:1" /><path
         d="M 0,0 C 1.93834,0.08715017 3.8757429,0.19532964 5.8125,0.3125 7.430918,0.39951172 7.430918,0.39951172 9.0820313,0.48828125 12.174975,1.0306851 13.130229,1.5528962 15,4 13.669616,4.3449145 12.335429,4.6751658 11,5 10.236875,5.226875 9.47375,5.45375 8.6875,5.6875 5.1051257,6.1040551 2.3876121,5.129204 -1,4 -0.67,2.68 -0.34,1.36 0,0 Z"
         fill="#1c1c1c"
         transform="translate(151,214)"
         id="path29"
         style="fill:#f9a03f;fill-opacity:1" /><path
         d="M 0,0 C 1.32,0 2.64,0 4,0 4.625,1.75 4.625,1.75 5,4 4.5359375,4.8353125 4.5359375,4.8353125 4.0625,5.6875 2.5999384,8.8707223 2.5686051,11.765108 2.375,15.25 2.3002344,16.513281 2.2254688,17.776562 2.1484375,19.078125 2.0994531,20.042344 2.0504687,21.006562 2,22 1.67,22 1.34,22 1,22 0.93941406,21.070586 0.87882812,20.141172 0.81640625,19.183594 0.33524593,11.410358 0.33524593,11.410358 -0.625,3.6875 -0.810625,2.3571875 -0.810625,2.3571875 -1,1 -0.67,0.67 -0.34,0.34 0,0 Z"
         fill="#636363"
         transform="translate(349,279)"
         id="path30"
         style="fill:#f9a03f;fill-opacity:1" /><path
         d="M 0,0 C 1.32,0 2.64,0 4,0 5.75,2 5.75,2 7,4 6.67,4.66 6.34,5.32 6,6 4.3333333,6 2.6666667,6 1,6 0.67,8.97 0.34,11.94 0,15 -0.66,14.67 -1.32,14.34 -2,14 -1.67,12.02 -1.34,10.04 -1,8 -1.66,7.67 -2.32,7.34 -3,7 -2.01,4.69 -1.02,2.38 0,0 Z"
         fill="#696969"
         transform="translate(105,391)"
         id="path31"
         style="fill:#f9a03f;fill-opacity:1" /><path
         d="M 0,0 C 0.99,0.66 1.98,1.32 3,2 0.03,2 -2.94,2 -6,2 -6.33,2.99 -6.66,3.98 -7,5 -5.88625,5.12375 -4.7725,5.2475 -3.625,5.375 0,6 0,6 2,8 -5.3846154,7.5076923 -5.3846154,7.5076923 -8.5,4.9375 -8.995,4.298125 -9.49,3.65875 -10,3 -7.2958662,-0.81760062 -4.392335,-0.39217277 0,0 Z"
         fill="#a3a3a3"
         transform="translate(157,213)"
         id="path32"
         style="fill:#f9a03f;fill-opacity:1" /><path
         d="M 0,0 C 0.99,0.33 1.98,0.66 3,1 2,5 2,5 1,9 -0.32,8.67 -1.64,8.34 -3,8 -2.25,2.25 -2.25,2.25 0,0 Z"
         fill="#535353"
         transform="translate(262,330)"
         id="path33"
         style="fill:#f9a03f;fill-opacity:1" /><path
         d="M 0,0 C 3.875,1.875 3.875,1.875 5,3 5.0406383,4.6661711 5.042721,6.3338809 5,8 1,8 1,8 -0.75,6.5 -1.1625,6.005 -1.575,5.51 -2,5 -1.34,5 -0.68,5 0,5 0.33,4.01 0.66,3.02 1,2 0.67,1.34 0.34,0.68 0,0 Z"
         fill="#6f6f6f"
         transform="translate(372,241)"
         id="path34"
         style="fill:#f9a03f;fill-opacity:1" /><path
         d="M 0,0 C 3,1 3,1 5,3 5,4.32 5,5.64 5,7 3.68,7 2.36,7 1,7 1,6.34 1,5.68 1,5 0.34,5 -0.32,5 -1,5 -0.67,3.35 -0.34,1.7 0,0 Z"
         fill="#080808"
         transform="translate(420,450)"
         id="path35"
         style="fill:#f9a03f;fill-opacity:1" /><path
         d="M 0,0 C 2,2 2,2 2.2304688,4.3125 2.2162891,5.199375 2.2021094,6.08625 2.1875,7 2.1810547,7.886875 2.1746094,8.77375 2.1679688,9.6875 2,12 2,12 1,14 c -0.66,0 -1.32,0 -2,0 0.0721875,-0.675469 0.144375,-1.350938 0.21875,-2.046875 C -0.6884375,11.061094 -0.595625,10.169063 -0.5,9.25 -0.4071875,8.3682813 -0.314375,7.4865625 -0.21875,6.578125 0.05636313,3.7669517 0.05636313,3.7669517 0,0 Z"
         fill="#969696"
         transform="translate(231,281)"
         id="path36"
         style="fill:#f9a03f;fill-opacity:1" /><path
         d="M 0,0 C 0,0.66 0,1.32 0,2 -3.96,3.98 -3.96,3.98 -8,6 -6.1559622,0.86303767 -5.732133,0 0,0 Z"
         fill="#7e7e7e"
         transform="translate(129,246)"
         id="path37"
         style="fill:#f9a03f;fill-opacity:1" /><path
         d="M 0,0 C 0.33,0.66 0.66,1.32 1,2 -0.134375,2.12375 -1.26875,2.2475 -2.4375,2.375 -4.2009375,2.684375 -4.2009375,2.684375 -6,3 -6.33,3.66 -6.66,4.32 -7,5 -7.33,3.68 -7.66,2.36 -8,1 -5.36,0.67 -2.72,0.34 0,0 Z"
         fill="#ababab"
         transform="translate(348,419)"
         id="path38"
         style="fill:#f9a03f;fill-opacity:1" /><path
         d="M 0,0 C 0.33,1.65 0.66,3.3 1,5 0.5875,4.505 0.175,4.01 -0.25,3.5 -2.1220234,1.5661391 -2.1220234,1.5661391 -6,2 c 0,-0.66 0,-1.32 0,-2 2.4909281,-1.245464 3.4108073,-0.7767578 6,0 z"
         fill="#828282"
         transform="translate(95,388)"
         id="path39"
         style="fill:#f9a03f;fill-opacity:1" /><path
         d="M 0,0 C 1.98,0 3.96,0 6,0 6.66,1.32 7.32,2.64 8,4 7.01,4 6.02,4 5,4 5,3.34 5,2.68 5,2 3.35,2 1.7,2 0,2 0,1.34 0,0.68 0,0 Z"
         fill="#0d0d0d"
         transform="translate(293,231)"
         id="path40"
         style="fill:#f9a03f;fill-opacity:1" /><path
         d="M 0,0 C 0.99,0 1.98,0 3,0 2.67,0.66 2.34,1.32 2,2 1.34,1.34 0.68,0.68 0,0 Z"
         fill="#202020"
         transform="translate(257,59)"
         id="path41"
         style="fill:#f9a03f;fill-opacity:1" /><path
         d=""
         fill="#555555"
         id="path42"
         style="fill:#f9a03f;fill-opacity:1" /></g></g></svg>
